<svg width="1600" height="900" viewBox="0 0 1600 900" fill="none" xmlns="http://www.w3.org/2000/svg">
  <rect width="1600" height="900" fill="#07111F"/>
  <rect x="72" y="72" width="1456" height="756" rx="36" fill="#0E1B2E" stroke="#233754" stroke-width="2"/>
  <text x="120" y="150" fill="#E7F0FF" font-family="Arial, sans-serif" font-size="42" font-weight="700">Reference Board Handoff System</text>
  <text x="120" y="192" fill="#9CB6D8" font-family="Arial, sans-serif" font-size="22">Tone, material, composition, function, constraints</text>
  <rect x="120" y="250" width="250" height="470" rx="24" fill="#132742"/>
  <rect x="400" y="250" width="250" height="470" rx="24" fill="#142C46"/>
  <rect x="680" y="250" width="250" height="470" rx="24" fill="#15304B"/>
  <rect x="960" y="250" width="250" height="470" rx="24" fill="#163650"/>
  <rect x="1240" y="250" width="240" height="470" rx="24" fill="#173B56"/>
  <text x="160" y="320" fill="#9DE4FF" font-family="Arial, sans-serif" font-size="30" font-weight="700">Tone</text>
  <text x="440" y="320" fill="#B1F4D4" font-family="Arial, sans-serif" font-size="30" font-weight="700">Material</text>
  <text x="720" y="320" fill="#FFD6A5" font-family="Arial, sans-serif" font-size="30" font-weight="700">Composition</text>
  <text x="1000" y="320" fill="#F7B2FF" font-family="Arial, sans-serif" font-size="30" font-weight="700">Function</text>
  <text x="1270" y="320" fill="#FFE88A" font-family="Arial, sans-serif" font-size="30" font-weight="700">Constraints</text>
  <text x="160" y="390" fill="#DCE7F8" font-family="Arial, sans-serif" font-size="22">• quiet</text>
  <text x="160" y="435" fill="#DCE7F8" font-family="Arial, sans-serif" font-size="22">• precise</text>
  <text x="160" y="480" fill="#DCE7F8" font-family="Arial, sans-serif" font-size="22">• cool daylight</text>
  <text x="440" y="390" fill="#DCE7F8" font-family="Arial, sans-serif" font-size="22">• glass panel</text>
  <text x="440" y="435" fill="#DCE7F8" font-family="Arial, sans-serif" font-size="22">• brushed metal</text>
  <text x="440" y="480" fill="#DCE7F8" font-family="Arial, sans-serif" font-size="22">• matte surface</text>
  <text x="720" y="390" fill="#DCE7F8" font-family="Arial, sans-serif" font-size="22">• top safe space</text>
  <text x="720" y="435" fill="#DCE7F8" font-family="Arial, sans-serif" font-size="22">• centered object</text>
  <text x="720" y="480" fill="#DCE7F8" font-family="Arial, sans-serif" font-size="22">• left-to-right flow</text>
  <text x="1000" y="390" fill="#DCE7F8" font-family="Arial, sans-serif" font-size="22">• cover image</text>
  <text x="1000" y="435" fill="#DCE7F8" font-family="Arial, sans-serif" font-size="22">• inline support</text>
  <text x="1000" y="480" fill="#DCE7F8" font-family="Arial, sans-serif" font-size="22">• text overlay ready</text>
  <text x="1270" y="390" fill="#DCE7F8" font-family="Arial, sans-serif" font-size="22">• no human</text>
  <text x="1270" y="435" fill="#DCE7F8" font-family="Arial, sans-serif" font-size="22">• no face</text>
  <text x="1270" y="480" fill="#DCE7F8" font-family="Arial, sans-serif" font-size="22">• no silhouette</text>
  <rect x="170" y="560" width="220" height="100" rx="20" fill="#1B3553"/>
  <rect x="450" y="560" width="180" height="100" rx="20" fill="#244867"/>
  <rect x="740" y="550" width="120" height="120" rx="24" fill="#2F5C7D"/>
  <rect x="1000" y="565" width="170" height="90" rx="18" fill="#37588A"/>
  <rect x="1280" y="555" width="130" height="110" rx="24" fill="#6B5B2A"/>
</svg>