<svg width="1600" height="900" viewBox="0 0 1600 900" xmlns="http://www.w3.org/2000/svg">
  <defs>
    <linearGradient id="bg1" x1="0" y1="0" x2="1" y2="1">
      <stop offset="0%" stop-color="#0f172a"/>
      <stop offset="100%" stop-color="#1e293b"/>
    </linearGradient>
  </defs>
  <rect width="1600" height="900" fill="url(#bg1)"/>
  <rect x="120" y="110" width="1360" height="680" rx="24" fill="#111827" stroke="#334155" stroke-width="4"/>
  <rect x="190" y="180" width="540" height="500" rx="16" fill="#0b1220" stroke="#475569"/>
  <rect x="780" y="180" width="630" height="150" rx="14" fill="#1f2937"/>
  <rect x="780" y="360" width="630" height="150" rx="14" fill="#1f2937"/>
  <rect x="780" y="540" width="630" height="150" rx="14" fill="#1f2937"/>
  <rect x="230" y="240" width="460" height="22" rx="8" fill="#38bdf8" opacity="0.8"/>
  <rect x="230" y="290" width="410" height="18" rx="8" fill="#64748b"/>
  <rect x="230" y="330" width="420" height="18" rx="8" fill="#64748b"/>
  <rect x="230" y="370" width="360" height="18" rx="8" fill="#64748b"/>
  <rect x="230" y="440" width="200" height="70" rx="10" fill="#22c55e" opacity="0.85"/>
  <rect x="450" y="440" width="200" height="70" rx="10" fill="#f59e0b" opacity="0.85"/>
</svg>