<svg width="1600" height="900" viewBox="0 0 1600 900" xmlns="http://www.w3.org/2000/svg">
  <defs>
    <linearGradient id="bg3" x1="0" y1="1" x2="1" y2="0">
      <stop offset="0%" stop-color="#111827"/>
      <stop offset="100%" stop-color="#0c4a6e"/>
    </linearGradient>
  </defs>
  <rect width="1600" height="900" fill="url(#bg3)"/>
  <rect x="140" y="130" width="560" height="640" rx="18" fill="#0b1220" stroke="#475569"/>
  <rect x="760" y="130" width="700" height="640" rx="18" fill="#0b1220" stroke="#475569"/>
  <path d="M700 450 C760 360, 840 360, 900 450" stroke="#22d3ee" stroke-width="8" fill="none"/>
  <path d="M900 450 C980 540, 1060 540, 1140 450" stroke="#22d3ee" stroke-width="8" fill="none"/>
  <rect x="200" y="220" width="430" height="28" rx="10" fill="#38bdf8"/>
  <rect x="200" y="270" width="380" height="18" rx="8" fill="#64748b"/>
  <rect x="200" y="310" width="400" height="18" rx="8" fill="#64748b"/>
  <rect x="820" y="210" width="580" height="120" rx="14" fill="#1f2937"/>
  <rect x="820" y="360" width="580" height="120" rx="14" fill="#1f2937"/>
  <rect x="820" y="510" width="580" height="120" rx="14" fill="#1f2937"/>
</svg>