<svg width="1600" height="900" viewBox="0 0 1600 900" xmlns="http://www.w3.org/2000/svg">
  <defs>
    <linearGradient id="bg" x1="0" y1="0" x2="1" y2="1">
      <stop offset="0%" stop-color="#0b1021"/>
      <stop offset="100%" stop-color="#1c2b4a"/>
    </linearGradient>
    <linearGradient id="card" x1="0" y1="0" x2="1" y2="0">
      <stop offset="0%" stop-color="#6ee7ff"/>
      <stop offset="100%" stop-color="#818cf8"/>
    </linearGradient>
  </defs>
  <rect width="1600" height="900" fill="url(#bg)"/>
  <rect x="160" y="150" width="1280" height="600" rx="26" fill="#0f172a" stroke="#334155" stroke-width="2"/>
  <rect x="220" y="220" width="360" height="110" rx="14" fill="url(#card)" opacity="0.9"/>
  <rect x="220" y="360" width="360" height="110" rx="14" fill="#22d3ee" opacity="0.65"/>
  <rect x="220" y="500" width="360" height="110" rx="14" fill="#a78bfa" opacity="0.65"/>
  <rect x="650" y="220" width="710" height="390" rx="20" fill="#111827" stroke="#475569" stroke-width="2"/>
  <path d="M700 320 C840 230, 980 430, 1120 320 S1400 260, 1320 520" stroke="#67e8f9" stroke-width="5" fill="none" opacity="0.85"/>
  <path d="M700 390 C860 280, 980 500, 1150 400 S1370 340, 1290 560" stroke="#a78bfa" stroke-width="5" fill="none" opacity="0.85"/>
  <circle cx="740" cy="280" r="9" fill="#67e8f9"/>
  <circle cx="905" cy="350" r="9" fill="#a78bfa"/>
  <circle cx="1080" cy="315" r="9" fill="#67e8f9"/>
  <circle cx="1230" cy="420" r="9" fill="#a78bfa"/>
</svg>