<svg xmlns="http://www.w3.org/2000/svg" width="1600" height="900" viewBox="0 0 1600 900" fill="none">
  <rect width="1600" height="900" fill="#0E0F18"/>
  <rect x="70" y="70" width="1460" height="760" rx="30" fill="#171A28" stroke="#3E4564"/>
  <rect x="120" y="120" width="660" height="660" rx="22" fill="#212943"/>
  <rect x="820" y="120" width="660" height="200" rx="22" fill="#23364D"/>
  <rect x="820" y="340" width="660" height="200" rx="22" fill="#2A3D57"/>
  <rect x="820" y="560" width="660" height="220" rx="22" fill="#314A66"/>
  <path d="M190 680 L390 420 L560 610 L700 360" stroke="#7DA6FF" stroke-width="10" stroke-linecap="round"/>
  <circle cx="390" cy="420" r="14" fill="#7DA6FF"/>
  <circle cx="560" cy="610" r="14" fill="#7DA6FF"/>
  <circle cx="700" cy="360" r="14" fill="#7DA6FF"/>
  <rect x="860" y="170" width="260" height="22" rx="10" fill="#95FFC8"/>
  <rect x="1140" y="170" width="280" height="22" rx="10" fill="#FFE08A"/>
  <rect x="860" y="210" width="540" height="14" rx="7" fill="#89A4D8"/>
  <rect x="860" y="390" width="180" height="22" rx="10" fill="#95FFC8"/>
  <rect x="1060" y="390" width="190" height="22" rx="10" fill="#FFE08A"/>
  <rect x="1270" y="390" width="160" height="22" rx="10" fill="#8FD2FF"/>
  <rect x="860" y="430" width="540" height="14" rx="7" fill="#89A4D8"/>
  <rect x="860" y="610" width="580" height="24" rx="10" fill="#9EC2FF"/>
  <rect x="860" y="650" width="420" height="14" rx="7" fill="#92A4D1"/>
  <rect x="860" y="678" width="500" height="14" rx="7" fill="#92A4D1"/>
  <text x="120" y="845" fill="#D6DEF8" font-family="Arial, sans-serif" font-size="34" font-weight="700">Variation Set Matrix for Reusable Visual Assets</text>
</svg>