<svg xmlns="http://www.w3.org/2000/svg" width="1600" height="900" viewBox="0 0 1600 900" fill="none">
  <rect width="1600" height="900" fill="#0C1220"/>
  <rect x="64" y="64" width="1472" height="772" rx="32" fill="#131D33" stroke="#2D446B"/>
  <rect x="120" y="120" width="320" height="640" rx="20" fill="#1D2D4B"/>
  <rect x="470" y="120" width="320" height="640" rx="20" fill="#22365A"/>
  <rect x="820" y="120" width="320" height="640" rx="20" fill="#294167"/>
  <rect x="1170" y="120" width="320" height="640" rx="20" fill="#304E75"/>
  <rect x="155" y="180" width="250" height="18" rx="9" fill="#8BA3FF"/>
  <rect x="155" y="220" width="220" height="12" rx="6" fill="#5D78C5"/>
  <rect x="155" y="260" width="190" height="12" rx="6" fill="#5D78C5"/>
  <rect x="505" y="180" width="250" height="18" rx="9" fill="#9AE7B4"/>
  <rect x="505" y="220" width="220" height="12" rx="6" fill="#62B880"/>
  <rect x="505" y="260" width="190" height="12" rx="6" fill="#62B880"/>
  <rect x="855" y="180" width="250" height="18" rx="9" fill="#FFD27A"/>
  <rect x="855" y="220" width="220" height="12" rx="6" fill="#C89A49"/>
  <rect x="855" y="260" width="190" height="12" rx="6" fill="#C89A49"/>
  <rect x="1205" y="180" width="250" height="18" rx="9" fill="#8FD8FF"/>
  <rect x="1205" y="220" width="220" height="12" rx="6" fill="#5B9EC7"/>
  <rect x="1205" y="260" width="190" height="12" rx="6" fill="#5B9EC7"/>
  <path d="M280 720 C340 640, 540 640, 600 720" stroke="#8BA3FF" stroke-width="8" fill="none"/>
  <path d="M630 720 C690 620, 890 620, 950 720" stroke="#9AE7B4" stroke-width="8" fill="none"/>
  <path d="M980 720 C1040 600, 1240 600, 1300 720" stroke="#FFD27A" stroke-width="8" fill="none"/>
  <text x="120" y="820" fill="#CFE1FF" font-family="Arial, sans-serif" font-size="34" font-weight="700">Weekly Review Loop: Prompt Blocks → Variants → Metrics → Rebuild</text>
</svg>