<svg width="1600" height="900" viewBox="0 0 1600 900" fill="none" xmlns="http://www.w3.org/2000/svg" data-dms-edition="fiber-diagram-2026-09" role="img">
  <defs>
    <linearGradient id="bg2" x1="0" y1="0" x2="1600" y2="900" gradientUnits="userSpaceOnUse">
      <stop stop-color="#f4f3ee" stop-opacity="1"/>
      <stop offset="1" stop-color="#f4f3ee" stop-opacity="1"/>
    </linearGradient>
  </defs>
  <rect width="1600" height="900" fill="#f4f3ee"/>
  <rect x="180" y="140" width="1240" height="620" rx="4" fill="#edf0f3" stroke="#627391" stroke-opacity="0.55" stroke-width="2"/>
  <path d="M280 650C420 420 580 420 720 650" stroke="#2f7078" stroke-width="8" stroke-linecap="round"/>
  <path d="M520 650C700 300 900 300 1080 650" stroke="#627391" stroke-width="8" stroke-linecap="round"/>
  <path d="M760 650C900 460 1040 460 1180 650" stroke="#627391" stroke-width="8" stroke-linecap="round"/>
  <rect x="260" y="220" width="220" height="78" rx="4" fill="#dce3f4" fill-opacity="0.3" stroke="#123ecb"/>
  <rect x="540" y="220" width="220" height="78" rx="4" fill="#dfe2eb" fill-opacity="0.3" stroke="#627391"/>
  <rect x="820" y="220" width="220" height="78" rx="4" fill="#eadde1" fill-opacity="0.25" stroke="#627391"/>
  <rect x="1100" y="220" width="220" height="78" rx="4" fill="#dfe8e3" fill-opacity="0.28" stroke="#376958"/>
  <text x="303" y="268" fill="#5c6470" font-size="24" font-family="Arial, 'Malgun Gothic', 'Noto Sans KR', sans-serif" opacity="1">Capture</text>
  <text x="596" y="268" fill="#5c6470" font-size="24" font-family="Arial, 'Malgun Gothic', 'Noto Sans KR', sans-serif" opacity="1">Review</text>
  <text x="880" y="268" fill="#5c6470" font-size="24" font-family="Arial, 'Malgun Gothic', 'Noto Sans KR', sans-serif" opacity="1">Decide</text>
  <text x="1168" y="268" fill="#5c6470" font-size="24" font-family="Arial, 'Malgun Gothic', 'Noto Sans KR', sans-serif" opacity="1">Apply</text>
</svg>