<svg xmlns="http://www.w3.org/2000/svg" width="1600" height="900" viewBox="0 0 1600 900" role="img" aria-label="Latency budget ladder chart">
  <defs>
    <linearGradient id="bg2" x1="0" y1="0" x2="1" y2="1">
      <stop offset="0%" stop-color="#0f172a"/>
      <stop offset="100%" stop-color="#1e293b"/>
    </linearGradient>
    <linearGradient id="bar1" x1="0" y1="1" x2="0" y2="0">
      <stop offset="0%" stop-color="#3b82f6"/>
      <stop offset="100%" stop-color="#22d3ee"/>
    </linearGradient>
    <linearGradient id="bar2" x1="0" y1="1" x2="0" y2="0">
      <stop offset="0%" stop-color="#6366f1"/>
      <stop offset="100%" stop-color="#a78bfa"/>
    </linearGradient>
  </defs>
  <rect width="1600" height="900" fill="url(#bg2)"/>
  <g stroke="#334155" stroke-width="2">
    <path d="M180 740 H1460"/>
    <path d="M180 620 H1460"/>
    <path d="M180 500 H1460"/>
    <path d="M180 380 H1460"/>
    <path d="M180 260 H1460"/>
  </g>
  <g fill="#cbd5e1" font-family="Pretendard, Segoe UI, sans-serif">
    <text x="180" y="120" font-size="46" font-weight="700">Latency Budget Ladder by Request Tier</text>
    <text x="180" y="170" font-size="24" fill="#94a3b8">Adaptive routing keeps p95 stable without quality collapse</text>
  </g>
  <g>
    <rect x="260" y="420" width="150" height="320" rx="18" fill="url(#bar1)"/>
    <rect x="460" y="360" width="150" height="380" rx="18" fill="url(#bar2)"/>
    <rect x="660" y="300" width="150" height="440" rx="18" fill="url(#bar1)"/>
    <rect x="860" y="250" width="150" height="490" rx="18" fill="url(#bar2)"/>
    <rect x="1060" y="210" width="150" height="530" rx="18" fill="url(#bar1)"/>
    <rect x="1260" y="170" width="150" height="570" rx="18" fill="url(#bar2)"/>
  </g>
  <g fill="#e2e8f0" font-size="22" font-family="Pretendard, Segoe UI, sans-serif" text-anchor="middle">
    <text x="335" y="785">Tier A</text>
    <text x="535" y="785">Tier B</text>
    <text x="735" y="785">Tier C</text>
    <text x="935" y="785">Tier D</text>
    <text x="1135" y="785">Tier E</text>
    <text x="1335" y="785">Tier F</text>
  </g>
</svg>