<svg width="1600" height="900" viewBox="0 0 1600 900" xmlns="http://www.w3.org/2000/svg" role="img" aria-label="Latency-aware routing map">
  <defs>
    <linearGradient id="bg" x1="0" y1="0" x2="1" y2="1">
      <stop offset="0%" stop-color="#071029"/>
      <stop offset="100%" stop-color="#0f2a4a"/>
    </linearGradient>
    <linearGradient id="panel" x1="0" y1="0" x2="1" y2="0">
      <stop offset="0%" stop-color="#22d3ee"/>
      <stop offset="100%" stop-color="#6366f1"/>
    </linearGradient>
  </defs>
  <rect width="1600" height="900" fill="url(#bg)"/>
  <rect x="120" y="120" width="1360" height="660" rx="28" fill="#0b1226" stroke="#1f3b63" stroke-width="2"/>
  <text x="170" y="190" fill="#9bd7ff" font-size="42" font-family="Pretendard, Arial, sans-serif">LATENCY-AWARE ROUTING MAP</text>
  <g stroke="url(#panel)" stroke-width="5" fill="none" opacity="0.9">
    <path d="M210 310 C390 230, 530 420, 700 340 S1050 260, 1320 340"/>
    <path d="M210 430 C410 510, 520 330, 710 450 S1040 560, 1310 480"/>
    <path d="M210 560 C380 620, 560 560, 730 610 S1070 700, 1320 620"/>
  </g>
  <g fill="#7dd3fc" font-size="24" font-family="Pretendard, Arial, sans-serif">
    <rect x="230" y="265" width="180" height="56" rx="12" fill="#102a46"/><text x="260" y="301">Input Queue</text>
    <rect x="640" y="312" width="220" height="56" rx="12" fill="#102a46"/><text x="672" y="348">Cost Gate</text>
    <rect x="1090" y="265" width="240" height="56" rx="12" fill="#102a46"/><text x="1120" y="301">Model Router</text>
    <rect x="650" y="545" width="230" height="56" rx="12" fill="#102a46"/><text x="676" y="581">Fallback Channel</text>
  </g>
</svg>