<svg xmlns="http://www.w3.org/2000/svg" width="1600" height="900" viewBox="0 0 1600 900" role="img" aria-label="AI inference control tower map">
  <defs>
    <linearGradient id="bg" x1="0" y1="0" x2="1" y2="1">
      <stop offset="0%" stop-color="#0b1020"/>
      <stop offset="100%" stop-color="#142b4d"/>
    </linearGradient>
    <linearGradient id="card" x1="0" y1="0" x2="1" y2="1">
      <stop offset="0%" stop-color="#1d4ed8" stop-opacity="0.3"/>
      <stop offset="100%" stop-color="#06b6d4" stop-opacity="0.25"/>
    </linearGradient>
  </defs>
  <rect width="1600" height="900" fill="url(#bg)"/>
  <g stroke="#60a5fa" stroke-opacity="0.35" fill="none">
    <path d="M120 150 H1480"/>
    <path d="M120 300 H1480"/>
    <path d="M120 450 H1480"/>
    <path d="M120 600 H1480"/>
    <path d="M120 750 H1480"/>
    <path d="M220 120 V780"/>
    <path d="M520 120 V780"/>
    <path d="M820 120 V780"/>
    <path d="M1120 120 V780"/>
    <path d="M1420 120 V780"/>
  </g>
  <rect x="170" y="180" width="1260" height="540" rx="28" fill="url(#card)" stroke="#38bdf8" stroke-opacity="0.45"/>
  <g fill="#e2e8f0" font-family="Pretendard, Segoe UI, sans-serif">
    <text x="220" y="250" font-size="44" font-weight="700">Inference Arbitration Control Tower</text>
    <text x="220" y="300" font-size="24" fill="#bfdbfe">Latency · Quality · Cost Signals in one decision plane</text>
    <text x="240" y="400" font-size="30">Input Classifier</text>
    <text x="630" y="400" font-size="30">Model Router</text>
    <text x="990" y="400" font-size="30">Budget Guardrail</text>
    <text x="1260" y="400" font-size="30">Response Gate</text>
  </g>
  <g fill="#22d3ee" fill-opacity="0.9">
    <circle cx="360" cy="520" r="18"/>
    <circle cx="760" cy="520" r="18"/>
    <circle cx="1120" cy="520" r="18"/>
    <circle cx="1360" cy="520" r="18"/>
  </g>
  <g stroke="#22d3ee" stroke-width="5" fill="none" stroke-linecap="round">
    <path d="M380 520 H740"/>
    <path d="M780 520 H1100"/>
    <path d="M1140 520 H1340"/>
  </g>
</svg>