<svg width="1600" height="900" viewBox="0 0 1600 900" xmlns="http://www.w3.org/2000/svg">
  <defs>
    <linearGradient id="bg2" x1="0" y1="0" x2="1" y2="1">
      <stop offset="0%" stop-color="#111827"/>
      <stop offset="100%" stop-color="#1e3a8a"/>
    </linearGradient>
  </defs>
  <rect width="1600" height="900" fill="url(#bg2)"/>
  <rect x="140" y="140" width="1320" height="620" rx="30" fill="#0f172a" stroke="#334155" stroke-width="4"/>
  <polyline points="220,620 360,520 500,560 640,420 780,470 920,360 1060,390 1200,300 1340,340" fill="none" stroke="#22d3ee" stroke-width="8"/>
  <polyline points="220,660 360,640 500,610 640,580 780,610 920,560 1060,520 1200,500 1340,470" fill="none" stroke="#f59e0b" stroke-width="8"/>
  <polyline points="220,560 360,590 500,520 640,540 780,500 920,510 1060,450 1200,420 1340,360" fill="none" stroke="#a78bfa" stroke-width="8"/>
  <g fill="#94a3b8" font-family="Pretendard, Arial, sans-serif" font-size="26">
    <text x="220" y="720">Quality</text>
    <text x="420" y="720">Latency</text>
    <text x="640" y="720">Cost</text>
    <text x="840" y="720">Retries</text>
    <text x="1050" y="720">Safety</text>
  </g>
  <text x="140" y="90" fill="#e2e8f0" font-size="56" font-family="Pretendard, Arial, sans-serif" font-weight="700">Three-Axis Monitoring for Small AI Teams</text>
</svg>