<svg width="1600" height="900" viewBox="0 0 1600 900" fill="none" xmlns="http://www.w3.org/2000/svg">
  <rect width="1600" height="900" fill="#0A0F1E"/>
  <rect x="120" y="120" width="1360" height="660" rx="36" fill="#111827" stroke="#60A5FA" stroke-opacity="0.45"/>
  <rect x="190" y="210" width="280" height="500" rx="20" fill="#0F172A" stroke="#22D3EE" stroke-opacity="0.6"/>
  <rect x="520" y="210" width="280" height="500" rx="20" fill="#0F172A" stroke="#A78BFA" stroke-opacity="0.6"/>
  <rect x="850" y="210" width="280" height="500" rx="20" fill="#0F172A" stroke="#34D399" stroke-opacity="0.6"/>
  <rect x="1180" y="210" width="230" height="500" rx="20" fill="#0F172A" stroke="#F59E0B" stroke-opacity="0.6"/>
  <path d="M245 280H415M245 360H415M245 440H415M245 520H415M245 600H375" stroke="#67E8F9" stroke-width="6" stroke-linecap="round"/>
  <path d="M575 280H745M575 360H745M575 440H745M575 520H745M575 600H705" stroke="#C4B5FD" stroke-width="6" stroke-linecap="round"/>
  <path d="M905 280H1075M905 360H1075M905 440H1075M905 520H1075M905 600H1035" stroke="#86EFAC" stroke-width="6" stroke-linecap="round"/>
  <path d="M1225 280H1365M1225 360H1365M1225 440H1365M1225 520H1365M1225 600H1335" stroke="#FCD34D" stroke-width="6" stroke-linecap="round"/>
</svg>