<svg width="1600" height="900" viewBox="0 0 1600 900" fill="none" xmlns="http://www.w3.org/2000/svg">
  <rect width="1600" height="900" fill="#0B1020"/>
  <rect x="100" y="100" width="1400" height="700" rx="36" fill="#111827" stroke="#38BDF8" stroke-opacity="0.45"/>
  <rect x="180" y="190" width="1240" height="170" rx="24" fill="#0F172A" stroke="#34D399" stroke-opacity="0.55"/>
  <rect x="180" y="390" width="590" height="320" rx="24" fill="#0F172A" stroke="#A78BFA" stroke-opacity="0.55"/>
  <rect x="830" y="390" width="590" height="320" rx="24" fill="#0F172A" stroke="#F59E0B" stroke-opacity="0.55"/>
  <path d="M250 260H1320M250 305H1140" stroke="#6EE7B7" stroke-width="6" stroke-linecap="round"/>
  <path d="M240 470H710M240 530H650M240 590H680M240 650H600" stroke="#DDD6FE" stroke-width="6" stroke-linecap="round"/>
  <path d="M890 470H1360M890 530H1310M890 590H1335M890 650H1270" stroke="#FDE68A" stroke-width="6" stroke-linecap="round"/>
  <circle cx="145" cy="145" r="8" fill="#22D3EE"/>
  <circle cx="175" cy="145" r="8" fill="#34D399"/>
  <circle cx="205" cy="145" r="8" fill="#A78BFA"/>
</svg>