<svg xmlns="http://www.w3.org/2000/svg" viewBox="0 0 1600 900" role="img" aria-label="체크 포인트가 빛나는 유리 작업 보드">
  <defs>
    <linearGradient id="bg2" x1="0" y1="0" x2="0" y2="1">
      <stop offset="0%" stop-color="#0a1024"/>
      <stop offset="100%" stop-color="#132f56"/>
    </linearGradient>
    <linearGradient id="panel" x1="0" y1="0" x2="1" y2="1">
      <stop offset="0%" stop-color="#a7f0ff" stop-opacity="0.22"/>
      <stop offset="100%" stop-color="#8aa4ff" stop-opacity="0.15"/>
    </linearGradient>
  </defs>
  <rect width="1600" height="900" fill="url(#bg2)"/>
  <rect x="140" y="120" width="1320" height="660" rx="28" fill="url(#panel)" stroke="#8be9ff" stroke-opacity="0.45"/>
  <g stroke="#63d9ff" stroke-width="2" opacity="0.55">
    <line x1="220" y1="220" x2="1380" y2="220"/>
    <line x1="220" y1="340" x2="1380" y2="340"/>
    <line x1="220" y1="460" x2="1380" y2="460"/>
    <line x1="220" y1="580" x2="1380" y2="580"/>
    <line x1="220" y1="700" x2="1380" y2="700"/>
    <line x1="420" y1="180" x2="420" y2="740"/>
    <line x1="760" y1="180" x2="760" y2="740"/>
    <line x1="1080" y1="180" x2="1080" y2="740"/>
  </g>
  <g fill="#b8fff7">
    <circle cx="300" cy="220" r="12"/>
    <circle cx="540" cy="340" r="12"/>
    <circle cx="860" cy="460" r="12"/>
    <circle cx="1180" cy="580" r="12"/>
    <circle cx="1320" cy="700" r="12"/>
  </g>
  <g fill="none" stroke="#d7fdff" stroke-width="3" opacity="0.8">
    <path d="M300 220 L540 340 L860 460 L1180 580 L1320 700"/>
  </g>
</svg>