<svg xmlns="http://www.w3.org/2000/svg" viewBox="0 0 1600 900" role="img" aria-label="별빛 복구 경로가 연결된 조수 정원">
  <defs>
    <linearGradient id="bg3" x1="0" y1="0" x2="1" y2="1">
      <stop offset="0%" stop-color="#050816"/>
      <stop offset="60%" stop-color="#1a1f47"/>
      <stop offset="100%" stop-color="#27356b"/>
    </linearGradient>
    <radialGradient id="glow" cx="50%" cy="50%" r="50%">
      <stop offset="0%" stop-color="#bdfdff" stop-opacity="0.9"/>
      <stop offset="100%" stop-color="#bdfdff" stop-opacity="0"/>
    </radialGradient>
  </defs>
  <rect width="1600" height="900" fill="url(#bg3)"/>
  <g fill="#9ec2ff" opacity="0.25">
    <rect x="120" y="640" width="1360" height="160" rx="40"/>
    <rect x="250" y="520" width="1100" height="90" rx="30"/>
  </g>
  <g fill="none" stroke="#8af4ff" stroke-width="3" opacity="0.8">
    <path d="M160 700 C340 610, 420 730, 620 660 S940 610, 1160 660 S1380 730, 1520 650"/>
    <path d="M180 760 C360 690, 500 790, 700 730 S1010 680, 1220 730 S1410 780, 1510 740" opacity="0.6"/>
  </g>
  <g>
    <circle cx="260" cy="690" r="46" fill="url(#glow)"/>
    <circle cx="520" cy="665" r="44" fill="url(#glow)"/>
    <circle cx="800" cy="640" r="48" fill="url(#glow)"/>
    <circle cx="1080" cy="665" r="44" fill="url(#glow)"/>
    <circle cx="1350" cy="690" r="46" fill="url(#glow)"/>
  </g>
  <g fill="#e6f8ff" opacity="0.85">
    <circle cx="230" cy="170" r="2"/>
    <circle cx="360" cy="120" r="2"/>
    <circle cx="520" cy="200" r="2"/>
    <circle cx="760" cy="150" r="2"/>
    <circle cx="980" cy="110" r="2"/>
    <circle cx="1220" cy="180" r="2"/>
    <circle cx="1420" cy="140" r="2"/>
  </g>
</svg>