<svg width="1600" height="900" viewBox="0 0 1600 900" xmlns="http://www.w3.org/2000/svg">
  <defs>
    <linearGradient id="bg2" x1="0" y1="0" x2="1" y2="1">
      <stop offset="0%" stop-color="#0b1b34"/>
      <stop offset="100%" stop-color="#11496a"/>
    </linearGradient>
    <linearGradient id="shelf" x1="0" y1="0" x2="0" y2="1">
      <stop offset="0%" stop-color="#6be4ff"/>
      <stop offset="100%" stop-color="#2d8fb3"/>
    </linearGradient>
  </defs>
  <rect width="1600" height="900" fill="url(#bg2)"/>
  <g opacity="0.7" stroke="#73ddff" stroke-width="3" fill="none">
    <ellipse cx="800" cy="620" rx="640" ry="170"/>
    <ellipse cx="800" cy="620" rx="470" ry="125"/>
    <ellipse cx="800" cy="620" rx="300" ry="80"/>
  </g>
  <g fill="url(#shelf)" opacity="0.55">
    <rect x="180" y="180" width="210" height="24" rx="10"/>
    <rect x="180" y="250" width="320" height="24" rx="10"/>
    <rect x="180" y="320" width="260" height="24" rx="10"/>
    <rect x="1210" y="180" width="210" height="24" rx="10"/>
    <rect x="1100" y="250" width="320" height="24" rx="10"/>
    <rect x="1160" y="320" width="260" height="24" rx="10"/>
  </g>
  <g fill="#b5f6ff" opacity="0.9">
    <circle cx="720" cy="510" r="12"/>
    <circle cx="760" cy="470" r="10"/>
    <circle cx="810" cy="450" r="14"/>
    <circle cx="860" cy="470" r="10"/>
    <circle cx="900" cy="510" r="12"/>
  </g>
  <rect x="0" y="700" width="1600" height="200" fill="#061a2a" opacity="0.7"/>
</svg>