<svg width="1600" height="900" viewBox="0 0 1600 900" fill="none" xmlns="http://www.w3.org/2000/svg">
  <rect width="1600" height="900" fill="#07131F"/>
  <rect y="560" width="1600" height="340" fill="#0B2230"/>
  <ellipse cx="800" cy="190" rx="520" ry="170" fill="#1C5B78" fill-opacity="0.25"/>
  <path d="M240 560C360 330 610 170 800 170C990 170 1240 330 1360 560" stroke="#7DE7D2" stroke-width="6" stroke-opacity="0.7"/>
  <path d="M340 560C430 380 620 250 800 250C980 250 1170 380 1260 560" stroke="#8B7CFF" stroke-width="4" stroke-opacity="0.5"/>
  <path d="M210 560H1390" stroke="#8ADFFF" stroke-width="4" stroke-opacity="0.45"/>
  <path d="M800 180V560" stroke="#6DE6D7" stroke-width="5" stroke-opacity="0.6"/>
  <path d="M520 560C560 470 610 410 700 380" stroke="#4AE0B7" stroke-width="12" stroke-linecap="round"/>
  <path d="M1080 560C1040 470 990 410 900 380" stroke="#4AE0B7" stroke-width="12" stroke-linecap="round"/>
  <path d="M470 620C620 590 780 585 920 600C1080 618 1210 655 1310 710" stroke="#6ACBFF" stroke-width="10" stroke-linecap="round" stroke-opacity="0.7"/>
  <circle cx="800" cy="120" r="34" fill="#FFF3B0"/>
  <circle cx="520" cy="330" r="22" fill="#7DF4C9" fill-opacity="0.8"/>
  <circle cx="630" cy="300" r="18" fill="#7DF4C9" fill-opacity="0.7"/>
  <circle cx="980" cy="320" r="24" fill="#9CA8FF" fill-opacity="0.75"/>
  <circle cx="1090" cy="360" r="18" fill="#9CA8FF" fill-opacity="0.65"/>
  <circle cx="760" cy="430" r="28" fill="#7DF4C9" fill-opacity="0.82"/>
  <circle cx="860" cy="430" r="28" fill="#7DF4C9" fill-opacity="0.82"/>
</svg>