<svg width="1600" height="900" viewBox="0 0 1600 900" fill="none" xmlns="http://www.w3.org/2000/svg">
  <rect width="1600" height="900" fill="#071019"/>
  <rect y="520" width="1600" height="380" fill="#0C2230"/>
  <rect x="230" y="250" width="1140" height="350" rx="40" fill="#102A38" stroke="#2A586A" stroke-width="4"/>
  <rect x="330" y="330" width="260" height="170" rx="24" fill="#143543"/>
  <rect x="670" y="330" width="260" height="170" rx="24" fill="#143543"/>
  <rect x="1010" y="330" width="260" height="170" rx="24" fill="#143543"/>
  <path d="M390 500C410 455 450 425 510 405" stroke="#7DE8C5" stroke-width="10" stroke-linecap="round"/>
  <path d="M730 500C760 450 805 420 870 405" stroke="#8FC8FF" stroke-width="10" stroke-linecap="round"/>
  <path d="M1060 500C1095 455 1150 425 1215 405" stroke="#A98DFF" stroke-width="10" stroke-linecap="round"/>
  <circle cx="800" cy="150" r="66" stroke="#F7E8A7" stroke-width="8"/>
  <circle cx="800" cy="150" r="14" fill="#F7E8A7"/>
  <path d="M800 96V204M746 150H854M760 110L840 190M840 110L760 190" stroke="#F7E8A7" stroke-width="6" stroke-linecap="round"/>
  <path d="M260 690C420 650 560 655 720 700C900 750 1100 760 1340 680" stroke="#6BD8FF" stroke-width="12" stroke-linecap="round"/>
  <circle cx="460" cy="215" r="8" fill="#8BDFFF"/>
  <circle cx="540" cy="170" r="6" fill="#8BDFFF"/>
  <circle cx="1120" cy="210" r="8" fill="#8BDFFF"/>
  <circle cx="1205" cy="170" r="6" fill="#8BDFFF"/>
</svg>