<svg width="1600" height="900" viewBox="0 0 1600 900" fill="none" xmlns="http://www.w3.org/2000/svg">
  <defs>
    <linearGradient id="bg" x1="0" y1="0" x2="1600" y2="900" gradientUnits="userSpaceOnUse">
      <stop stop-color="#0B1020"/>
      <stop offset="1" stop-color="#131A2F"/>
    </linearGradient>
    <linearGradient id="line" x1="230" y1="540" x2="1370" y2="540" gradientUnits="userSpaceOnUse">
      <stop stop-color="#6EE7F9"/>
      <stop offset="1" stop-color="#A78BFA"/>
    </linearGradient>
  </defs>
  <rect width="1600" height="900" fill="url(#bg)"/>
  <rect x="180" y="210" width="1240" height="480" rx="28" fill="#0F172A" stroke="#334155" stroke-width="2"/>
  <rect x="230" y="280" width="360" height="24" rx="12" fill="#1E293B"/>
  <rect x="230" y="330" width="1140" height="12" rx="6" fill="#1E293B"/>
  <rect x="230" y="365" width="1040" height="12" rx="6" fill="#1E293B"/>
  <rect x="230" y="400" width="920" height="12" rx="6" fill="#1E293B"/>
  <path d="M230 540H1370" stroke="url(#line)" stroke-width="8" stroke-linecap="round"/>
  <circle cx="390" cy="540" r="14" fill="#67E8F9"/>
  <circle cx="760" cy="540" r="14" fill="#C4B5FD"/>
  <circle cx="1120" cy="540" r="14" fill="#67E8F9"/>
  <rect x="230" y="588" width="260" height="48" rx="14" fill="#1E293B" stroke="#334155"/>
  <rect x="510" y="588" width="260" height="48" rx="14" fill="#1E293B" stroke="#334155"/>
  <rect x="790" y="588" width="260" height="48" rx="14" fill="#1E293B" stroke="#334155"/>
</svg>