<svg xmlns="http://www.w3.org/2000/svg" width="1600" height="900" viewBox="0 0 1600 900" role="img" aria-label="야간 창문과 복구 체크리스트를 상징하는 추상 네온 장면">
  <defs>
    <linearGradient id="bg3" x1="0" y1="0" x2="0" y2="1">
      <stop offset="0%" stop-color="#090b1a"/>
      <stop offset="100%" stop-color="#1f1438"/>
    </linearGradient>
    <linearGradient id="glow" x1="0" y1="0" x2="1" y2="1">
      <stop offset="0%" stop-color="#38bdf8"/>
      <stop offset="100%" stop-color="#e879f9"/>
    </linearGradient>
  </defs>
  <rect width="1600" height="900" fill="url(#bg3)"/>
  <rect x="220" y="150" width="1160" height="600" rx="28" fill="#111827" stroke="url(#glow)" stroke-width="4" opacity="0.9"/>
  <g fill="#0f172a" stroke="#334155" stroke-width="2">
    <rect x="300" y="240" width="460" height="430" rx="18"/>
    <rect x="840" y="240" width="460" height="430" rx="18"/>
  </g>
  <g stroke="#22d3ee" stroke-width="6" stroke-linecap="round" fill="none" opacity="0.95">
    <path d="M360 330h300"/><path d="M360 420h260"/><path d="M360 510h320"/>
    <path d="M900 330h300"/><path d="M900 420h280"/><path d="M900 510h330"/>
  </g>
  <g fill="#34d399">
    <circle cx="325" cy="330" r="10"/><circle cx="325" cy="420" r="10"/><circle cx="325" cy="510" r="10"/>
    <circle cx="865" cy="330" r="10"/><circle cx="865" cy="420" r="10"/><circle cx="865" cy="510" r="10"/>
  </g>
</svg>