<svg width="1200" height="630" viewBox="0 0 1200 630" fill="none" xmlns="http://www.w3.org/2000/svg">
  <rect width="1200" height="630" fill="#060B16"/>
  <defs>
    <linearGradient id="g3" x1="100" y1="500" x2="1100" y2="140" gradientUnits="userSpaceOnUse">
      <stop stop-color="#22D3EE" stop-opacity="0.22"/>
      <stop offset="1" stop-color="#F59E0B" stop-opacity="0.2"/>
    </linearGradient>
  </defs>
  <rect x="80" y="70" width="1040" height="490" rx="22" fill="url(#g3)" stroke="#334155"/>
  <g stroke="#1E293B" stroke-width="2">
    <path d="M130 500H1060"/><path d="M130 430H1060"/><path d="M130 360H1060"/><path d="M130 290H1060"/><path d="M130 220H1060"/>
  </g>
  <path d="M160 470C270 430 320 420 420 360C520 300 600 320 700 250C790 190 880 210 1030 140" stroke="#22D3EE" stroke-width="8" stroke-linecap="round"/>
  <path d="M160 500C260 470 350 460 450 410C560 355 640 370 730 320C840 260 930 250 1030 220" stroke="#F59E0B" stroke-width="6" stroke-linecap="round" opacity="0.8"/>
  <rect x="170" y="140" width="220" height="90" rx="12" fill="#0F172A" stroke="#22D3EE"/>
  <rect x="430" y="120" width="220" height="90" rx="12" fill="#0F172A" stroke="#38BDF8"/>
  <rect x="690" y="100" width="220" height="90" rx="12" fill="#0F172A" stroke="#F59E0B"/>
</svg>