<svg width="1600" height="900" viewBox="0 0 1600 900" fill="none" xmlns="http://www.w3.org/2000/svg">
  <defs>
    <linearGradient id="bg3" x1="0" y1="0" x2="1600" y2="900" gradientUnits="userSpaceOnUse">
      <stop stop-color="#0B1220"/>
      <stop offset="1" stop-color="#1E1B4B"/>
    </linearGradient>
    <linearGradient id="grid" x1="260" y1="230" x2="1340" y2="670" gradientUnits="userSpaceOnUse">
      <stop stop-color="#38BDF8" stop-opacity="0.7"/>
      <stop offset="1" stop-color="#A78BFA" stop-opacity="0.7"/>
    </linearGradient>
  </defs>
  <rect width="1600" height="900" fill="url(#bg3)"/>
  <rect x="220" y="180" width="1160" height="540" rx="32" fill="#0F172A" stroke="#334155" stroke-width="2"/>
  <path d="M260 620H1340" stroke="url(#grid)" stroke-width="3"/>
  <path d="M260 560H1340" stroke="#334155"/>
  <path d="M260 500H1340" stroke="#334155"/>
  <path d="M260 440H1340" stroke="#334155"/>
  <path d="M260 380H1340" stroke="#334155"/>
  <path d="M260 320H1340" stroke="#334155"/>
  <path d="M380 240V660" stroke="#334155"/>
  <path d="M520 240V660" stroke="#334155"/>
  <path d="M660 240V660" stroke="#334155"/>
  <path d="M800 240V660" stroke="#334155"/>
  <path d="M940 240V660" stroke="#334155"/>
  <path d="M1080 240V660" stroke="#334155"/>
  <path d="M1220 240V660" stroke="#334155"/>
  <polyline points="260,610 430,560 580,575 760,490 920,520 1060,430 1240,470 1340,410" stroke="#7DD3FC" stroke-width="6" stroke-linecap="round" stroke-linejoin="round"/>
  <circle cx="760" cy="490" r="10" fill="#C4B5FD"/>
  <circle cx="1060" cy="430" r="10" fill="#C4B5FD"/>
</svg>