<svg width="1200" height="630" viewBox="0 0 1200 630" fill="none" xmlns="http://www.w3.org/2000/svg">
  <rect width="1200" height="630" fill="#071019"/>
  <defs>
    <linearGradient id="g1" x1="120" y1="90" x2="1080" y2="540" gradientUnits="userSpaceOnUse">
      <stop stop-color="#22D3EE" stop-opacity="0.35"/>
      <stop offset="1" stop-color="#818CF8" stop-opacity="0.2"/>
    </linearGradient>
  </defs>
  <rect x="80" y="70" width="1040" height="490" rx="20" fill="url(#g1)" stroke="#334155"/>
  <g stroke="#1E293B" stroke-width="1">
    <path d="M120 120H1080"/><path d="M120 180H1080"/><path d="M120 240H1080"/><path d="M120 300H1080"/><path d="M120 360H1080"/><path d="M120 420H1080"/><path d="M120 480H1080"/>
    <path d="M180 90V540"/><path d="M280 90V540"/><path d="M380 90V540"/><path d="M480 90V540"/><path d="M580 90V540"/><path d="M680 90V540"/><path d="M780 90V540"/><path d="M880 90V540"/><path d="M980 90V540"/>
  </g>
  <rect x="180" y="170" width="280" height="120" rx="14" fill="#0F172A" stroke="#22D3EE"/>
  <rect x="500" y="170" width="280" height="120" rx="14" fill="#0F172A" stroke="#818CF8"/>
  <rect x="820" y="170" width="200" height="280" rx="14" fill="#0F172A" stroke="#38BDF8"/>
  <path d="M220 230H420" stroke="#67E8F9" stroke-width="6" stroke-linecap="round"/>
  <path d="M540 230H740" stroke="#A5B4FC" stroke-width="6" stroke-linecap="round"/>
  <circle cx="920" cy="230" r="44" stroke="#38BDF8" stroke-width="8"/>
  <path d="M920 230L950 210" stroke="#38BDF8" stroke-width="8" stroke-linecap="round"/>
</svg>