<svg width="1600" height="900" viewBox="0 0 1600 900" fill="none" xmlns="http://www.w3.org/2000/svg">
  <defs>
    <linearGradient id="bg2" x1="0" y1="0" x2="1600" y2="900" gradientUnits="userSpaceOnUse">
      <stop stop-color="#07111F"/>
      <stop offset="1" stop-color="#10263A"/>
    </linearGradient>
    <radialGradient id="orb" cx="0" cy="0" r="1" gradientUnits="userSpaceOnUse" gradientTransform="translate(820 450) rotate(90) scale(260)">
      <stop stop-color="#7DD3FC" stop-opacity="0.9"/>
      <stop offset="1" stop-color="#7DD3FC" stop-opacity="0"/>
    </radialGradient>
  </defs>
  <rect width="1600" height="900" fill="url(#bg2)"/>
  <circle cx="820" cy="450" r="270" fill="url(#orb)"/>
  <circle cx="820" cy="450" r="220" stroke="#93C5FD" stroke-opacity="0.5" stroke-width="2"/>
  <circle cx="820" cy="450" r="170" stroke="#C4B5FD" stroke-opacity="0.45" stroke-width="2"/>
  <circle cx="820" cy="450" r="120" stroke="#67E8F9" stroke-opacity="0.45" stroke-width="2"/>
  <path d="M220 700C360 600 520 780 660 690C760 625 870 640 980 700C1120 778 1260 620 1380 720" stroke="#60A5FA" stroke-width="4" stroke-linecap="round"/>
  <rect x="250" y="190" width="170" height="34" rx="10" fill="#0F172A" stroke="#334155"/>
  <rect x="430" y="190" width="210" height="34" rx="10" fill="#0F172A" stroke="#334155"/>
  <rect x="650" y="190" width="190" height="34" rx="10" fill="#0F172A" stroke="#334155"/>
  <rect x="850" y="190" width="240" height="34" rx="10" fill="#0F172A" stroke="#334155"/>
  <rect x="1100" y="190" width="180" height="34" rx="10" fill="#0F172A" stroke="#334155"/>
</svg>