<svg xmlns="http://www.w3.org/2000/svg" width="1600" height="900" viewBox="0 0 1600 900" role="img" aria-label="네온 격자 위에 임계값 라인이 떠 있는 추상 대시보드">
  <defs>
    <linearGradient id="bg" x1="0" y1="0" x2="1" y2="1">
      <stop offset="0%" stop-color="#06121f"/>
      <stop offset="100%" stop-color="#1a1040"/>
    </linearGradient>
    <linearGradient id="line" x1="0" y1="0" x2="1" y2="0">
      <stop offset="0%" stop-color="#22d3ee"/>
      <stop offset="100%" stop-color="#a78bfa"/>
    </linearGradient>
  </defs>
  <rect width="1600" height="900" fill="url(#bg)"/>
  <g stroke="#1f3b64" stroke-width="1" opacity="0.45">
    <path d="M0 120H1600M0 240H1600M0 360H1600M0 480H1600M0 600H1600M0 720H1600"/>
    <path d="M160 0V900M320 0V900M480 0V900M640 0V900M800 0V900M960 0V900M1120 0V900M1280 0V900M1440 0V900"/>
  </g>
  <path d="M120 620 C260 560, 320 520, 460 510 S760 540, 920 430 S1220 360, 1480 280" fill="none" stroke="url(#line)" stroke-width="8" stroke-linecap="round"/>
  <rect x="0" y="438" width="1600" height="4" fill="#f59e0b" opacity="0.8"/>
  <g fill="#22d3ee" opacity="0.9">
    <circle cx="460" cy="510" r="11"/><circle cx="920" cy="430" r="11"/><circle cx="1280" cy="340" r="11"/>
  </g>
</svg>