<svg width="1600" height="900" viewBox="0 0 1600 900" xmlns="http://www.w3.org/2000/svg">
  <defs>
    <linearGradient id="bg" x1="0" y1="0" x2="1" y2="1">
      <stop offset="0%" stop-color="#0b132b"/>
      <stop offset="100%" stop-color="#1c2541"/>
    </linearGradient>
    <linearGradient id="line" x1="0" y1="0" x2="1" y2="0">
      <stop offset="0%" stop-color="#5bc0be"/>
      <stop offset="100%" stop-color="#c6f1ef"/>
    </linearGradient>
  </defs>
  <rect width="1600" height="900" fill="url(#bg)"/>
  <g opacity="0.25" stroke="#3a506b" stroke-width="1">
    <path d="M0 120H1600M0 240H1600M0 360H1600M0 480H1600M0 600H1600M0 720H1600"/>
    <path d="M200 0V900M400 0V900M600 0V900M800 0V900M1000 0V900M1200 0V900M1400 0V900"/>
  </g>
  <polyline points="120,680 320,620 520,640 720,520 920,540 1120,390 1320,410 1480,300" fill="none" stroke="url(#line)" stroke-width="10" stroke-linecap="round" stroke-linejoin="round"/>
  <g fill="#5bc0be">
    <circle cx="320" cy="620" r="10"/><circle cx="720" cy="520" r="10"/><circle cx="1120" cy="390" r="10"/><circle cx="1480" cy="300" r="10"/>
  </g>
  <rect x="130" y="120" width="420" height="120" rx="16" fill="#0f1b35" stroke="#5bc0be" stroke-opacity="0.5"/>
  <text x="170" y="190" font-family="Inter, Arial, sans-serif" font-size="42" fill="#d7fffb">Night Buffer Dashboard</text>
</svg>