<svg width="1600" height="900" viewBox="0 0 1600 900" fill="none" xmlns="http://www.w3.org/2000/svg">
  <defs>
    <linearGradient id="bg2" x1="0" y1="0" x2="1600" y2="900" gradientUnits="userSpaceOnUse">
      <stop stop-color="#0C1222"/>
      <stop offset="1" stop-color="#18263F"/>
    </linearGradient>
    <linearGradient id="panel" x1="240" y1="180" x2="1360" y2="720" gradientUnits="userSpaceOnUse">
      <stop stop-color="#111C32"/>
      <stop offset="1" stop-color="#0F1A2B"/>
    </linearGradient>
    <linearGradient id="line2" x1="310" y1="0" x2="1280" y2="900" gradientUnits="userSpaceOnUse">
      <stop stop-color="#67E8F9"/>
      <stop offset="1" stop-color="#FDE68A"/>
    </linearGradient>
  </defs>
  <rect width="1600" height="900" fill="url(#bg2)"/>
  <rect x="220" y="150" width="1160" height="600" rx="28" fill="url(#panel)" stroke="#334155" stroke-width="4"/>
  <rect x="280" y="216" width="280" height="58" rx="16" fill="#17263F"/>
  <rect x="600" y="216" width="220" height="58" rx="16" fill="#17263F"/>
  <rect x="860" y="216" width="460" height="58" rx="16" fill="#17263F"/>
  <rect x="280" y="320" width="320" height="160" rx="20" fill="#17263F"/>
  <rect x="634" y="320" width="300" height="160" rx="20" fill="#17263F"/>
  <rect x="968" y="320" width="352" height="160" rx="20" fill="#17263F"/>
  <rect x="280" y="516" width="540" height="170" rx="20" fill="#17263F"/>
  <rect x="856" y="516" width="464" height="170" rx="20" fill="#17263F"/>
  <path d="M320 379H560" stroke="url(#line2)" stroke-width="8" stroke-linecap="round"/>
  <path d="M320 415H520" stroke="#3C4D68" stroke-width="10" stroke-linecap="round"/>
  <path d="M320 447H486" stroke="#3C4D68" stroke-width="10" stroke-linecap="round"/>
  <rect x="672" y="360" width="96" height="76" rx="16" fill="#60A5FA" fill-opacity="0.22" stroke="#60A5FA"/>
  <rect x="790" y="360" width="96" height="76" rx="16" fill="#34D399" fill-opacity="0.22" stroke="#34D399"/>
  <rect x="1010" y="348" width="268" height="104" rx="18" fill="#F59E0B" fill-opacity="0.12" stroke="#F59E0B"/>
  <path d="M302 572H768" stroke="#3C4D68" stroke-width="10" stroke-linecap="round"/>
  <path d="M302 608H720" stroke="#3C4D68" stroke-width="10" stroke-linecap="round"/>
  <path d="M302 644H652" stroke="#3C4D68" stroke-width="10" stroke-linecap="round"/>
  <circle cx="932" cy="568" r="18" fill="#67E8F9"/>
  <circle cx="932" cy="616" r="18" fill="#FDE68A"/>
  <circle cx="932" cy="664" r="18" fill="#A78BFA"/>
  <path d="M972 568H1240" stroke="#43516A" stroke-width="10" stroke-linecap="round"/>
  <path d="M972 616H1170" stroke="#43516A" stroke-width="10" stroke-linecap="round"/>
  <path d="M972 664H1280" stroke="#43516A" stroke-width="10" stroke-linecap="round"/>
  <rect x="1290" y="84" width="170" height="26" rx="13" fill="#223251"/>
  <rect x="116" y="774" width="230" height="20" rx="10" fill="#223251"/>
</svg>
