<svg width="1600" height="900" viewBox="0 0 1600 900" xmlns="http://www.w3.org/2000/svg" role="img" aria-label="주의 리듬 레저 추상 이미지 3">
  <defs>
    <linearGradient id="bg3" x1="0" y1="0" x2="0" y2="1">
      <stop offset="0%" stop-color="#111827"/>
      <stop offset="100%" stop-color="#030712"/>
    </linearGradient>
    <linearGradient id="bar" x1="0" y1="0" x2="0" y2="1">
      <stop offset="0%" stop-color="#22d3ee"/>
      <stop offset="100%" stop-color="#4f46e5"/>
    </linearGradient>
  </defs>
  <rect width="1600" height="900" fill="url(#bg3)"/>
  <g opacity="0.25" stroke="#334155" stroke-width="1">
    <path d="M0 120 H1600"/><path d="M0 240 H1600"/><path d="M0 360 H1600"/><path d="M0 480 H1600"/><path d="M0 600 H1600"/><path d="M0 720 H1600"/>
  </g>
  <g>
    <rect x="180" y="420" width="120" height="260" rx="16" fill="url(#bar)"/>
    <rect x="350" y="360" width="120" height="320" rx="16" fill="url(#bar)"/>
    <rect x="520" y="290" width="120" height="390" rx="16" fill="url(#bar)"/>
    <rect x="690" y="240" width="120" height="440" rx="16" fill="url(#bar)"/>
    <rect x="860" y="300" width="120" height="380" rx="16" fill="url(#bar)"/>
    <rect x="1030" y="370" width="120" height="310" rx="16" fill="url(#bar)"/>
    <rect x="1200" y="450" width="120" height="230" rx="16" fill="url(#bar)"/>
  </g>
  <path d="M150 220 C360 140 620 130 850 210 C1060 280 1260 300 1450 250" fill="none" stroke="#f59e0b" stroke-width="10" stroke-linecap="round"/>
  <text x="160" y="110" fill="#e5e7eb" font-size="44" font-family="Pretendard, Arial, sans-serif">Recovery-First Experience Curve</text>
  <text x="160" y="160" fill="#9ca3af" font-size="24" font-family="Pretendard, Arial, sans-serif">Less peak intensity, more sustainable immersion</text>
</svg>