<svg width="1600" height="900" viewBox="0 0 1600 900" fill="none" xmlns="http://www.w3.org/2000/svg">
  <rect width="1600" height="900" fill="#050A16"/>
  <rect x="140" y="110" width="1320" height="680" rx="40" fill="url(#panel)"/>
  <path d="M250 654L414 472L580 585L744 362L910 518L1078 292L1246 446L1362 292" stroke="url(#pulse)" stroke-width="20" stroke-linecap="round" stroke-linejoin="round"/>
  <path d="M250 654L414 472L580 585L744 362L910 518L1078 292L1246 446L1362 292" stroke="#98F5FF" stroke-opacity="0.15" stroke-width="74" stroke-linecap="round" stroke-linejoin="round"/>
  <rect x="262" y="238" width="310" height="20" rx="10" fill="#C7F7FF" fill-opacity="0.68"/>
  <rect x="262" y="276" width="212" height="12" rx="6" fill="#C7F7FF" fill-opacity="0.24"/>
  <rect x="1154" y="218" width="126" height="126" rx="24" fill="#13243F" stroke="#6ED6FF" stroke-opacity="0.35"/>
  <rect x="1192" y="256" width="50" height="50" rx="14" fill="url(#node)"/>
  <circle cx="580" cy="585" r="30" fill="#8EE9FF"/>
  <circle cx="744" cy="362" r="26" fill="#77BCFF"/>
  <circle cx="1078" cy="292" r="34" fill="#B094FF"/>
  <defs>
    <linearGradient id="panel" x1="140" y1="110" x2="1460" y2="790" gradientUnits="userSpaceOnUse">
      <stop stop-color="#0E1930"/>
      <stop offset="0.6" stop-color="#15223B"/>
      <stop offset="1" stop-color="#24172E"/>
    </linearGradient>
    <linearGradient id="pulse" x1="250" y1="472" x2="1362" y2="472" gradientUnits="userSpaceOnUse">
      <stop stop-color="#86F7FF"/>
      <stop offset="0.5" stop-color="#5FA9FF"/>
      <stop offset="1" stop-color="#C18FFF"/>
    </linearGradient>
    <linearGradient id="node" x1="1192" y1="256" x2="1242" y2="306" gradientUnits="userSpaceOnUse">
      <stop stop-color="#86F6FF"/>
      <stop offset="1" stop-color="#7687FF"/>
    </linearGradient>
  </defs>
</svg>