<svg width="1600" height="900" viewBox="0 0 1600 900" fill="none" xmlns="http://www.w3.org/2000/svg">
  <rect width="1600" height="900" fill="#0A0F1E"/>
  <defs>
    <linearGradient id="lg" x1="0" y1="0" x2="1600" y2="900" gradientUnits="userSpaceOnUse">
      <stop stop-color="#1D4ED8"/>
      <stop offset="0.5" stop-color="#0EA5E9"/>
      <stop offset="1" stop-color="#7C3AED"/>
    </linearGradient>
  </defs>
  <g opacity="0.22">
    <rect x="120" y="120" width="1360" height="660" rx="34" stroke="url(#lg)" stroke-width="3"/>
    <rect x="200" y="190" width="1200" height="520" rx="28" stroke="url(#lg)" stroke-width="2"/>
    <rect x="280" y="250" width="1040" height="400" rx="22" stroke="url(#lg)" stroke-width="2"/>
  </g>
  <g>
    <path d="M220 680C340 560 470 600 590 520C730 430 840 430 980 510C1120 590 1260 600 1380 500" stroke="#38BDF8" stroke-width="4" stroke-linecap="round"/>
    <path d="M220 740C360 640 470 650 620 580C770 510 880 510 1020 590C1160 670 1270 670 1380 590" stroke="#C084FC" stroke-width="4" stroke-linecap="round"/>
  </g>
  <g fill="#DBEAFE" fill-opacity="0.7">
    <rect x="340" y="330" width="160" height="14" rx="7"/>
    <rect x="560" y="390" width="210" height="14" rx="7"/>
    <rect x="860" y="340" width="190" height="14" rx="7"/>
    <rect x="1130" y="420" width="150" height="14" rx="7"/>
  </g>
</svg>