<svg width="1600" height="900" viewBox="0 0 1600 900" fill="none" xmlns="http://www.w3.org/2000/svg">
  <rect width="1600" height="900" fill="#050816"/>
  <defs>
    <radialGradient id="g1" cx="0" cy="0" r="1" gradientUnits="userSpaceOnUse" gradientTransform="translate(420 340) rotate(25) scale(520 360)">
      <stop stop-color="#22D3EE" stop-opacity="0.95"/>
      <stop offset="1" stop-color="#22D3EE" stop-opacity="0"/>
    </radialGradient>
    <radialGradient id="g2" cx="0" cy="0" r="1" gradientUnits="userSpaceOnUse" gradientTransform="translate(1120 560) rotate(-18) scale(540 340)">
      <stop stop-color="#A78BFA" stop-opacity="0.85"/>
      <stop offset="1" stop-color="#A78BFA" stop-opacity="0"/>
    </radialGradient>
  </defs>
  <rect width="1600" height="900" fill="url(#g1)"/>
  <rect width="1600" height="900" fill="url(#g2)"/>
  <g stroke="#67E8F9" stroke-opacity="0.45" stroke-width="2">
    <path d="M120 720C280 590 420 600 560 680C710 770 880 770 1040 640C1190 520 1320 500 1480 560"/>
    <path d="M80 620C260 510 390 520 540 600C700 690 890 690 1060 560C1220 440 1360 430 1520 500"/>
    <path d="M60 520C230 430 370 430 520 500C680 570 900 590 1080 470C1260 360 1390 360 1540 420"/>
  </g>
  <g fill="#E879F9" fill-opacity="0.35">
    <circle cx="320" cy="270" r="6"/>
    <circle cx="520" cy="350" r="5"/>
    <circle cx="760" cy="290" r="4"/>
    <circle cx="990" cy="380" r="6"/>
    <circle cx="1220" cy="310" r="5"/>
  </g>
</svg>