<svg width="1600" height="900" viewBox="0 0 1600 900" fill="none" xmlns="http://www.w3.org/2000/svg">
  <rect width="1600" height="900" fill="#0A0F24"/>
  <defs>
    <linearGradient id="lg" x1="180" y1="120" x2="1420" y2="780" gradientUnits="userSpaceOnUse">
      <stop stop-color="#22D3EE"/>
      <stop offset="0.5" stop-color="#A78BFA"/>
      <stop offset="1" stop-color="#F472B6"/>
    </linearGradient>
  </defs>
  <g opacity="0.9">
    <rect x="220" y="180" width="1160" height="540" rx="36" stroke="url(#lg)" stroke-width="3"/>
    <rect x="280" y="240" width="1040" height="420" rx="28" stroke="#67E8F9" stroke-opacity="0.5" stroke-width="2"/>
  </g>
  <g stroke="#C4B5FD" stroke-opacity="0.6" stroke-width="10" stroke-linecap="round">
    <path d="M360 620L520 500L680 560L840 420L1000 480L1160 340"/>
  </g>
  <g fill="#F0ABFC" fill-opacity="0.8">
    <circle cx="360" cy="620" r="10"/>
    <circle cx="520" cy="500" r="10"/>
    <circle cx="680" cy="560" r="10"/>
    <circle cx="840" cy="420" r="10"/>
    <circle cx="1000" cy="480" r="10"/>
    <circle cx="1160" cy="340" r="10"/>
  </g>
  <g fill="#22D3EE" fill-opacity="0.5">
    <rect x="340" y="310" width="36" height="180" rx="10"/>
    <rect x="460" y="280" width="36" height="210" rx="10"/>
    <rect x="580" y="340" width="36" height="150" rx="10"/>
    <rect x="700" y="240" width="36" height="250" rx="10"/>
    <rect x="820" y="290" width="36" height="200" rx="10"/>
    <rect x="940" y="220" width="36" height="270" rx="10"/>
    <rect x="1060" y="260" width="36" height="230" rx="10"/>
  </g>
</svg>
