<svg width="1600" height="900" viewBox="0 0 1600 900" fill="none" xmlns="http://www.w3.org/2000/svg">
  <defs>
    <linearGradient id="bg2" x1="0" y1="0" x2="1600" y2="900" gradientUnits="userSpaceOnUse">
      <stop stop-color="#111827"/>
      <stop offset="1" stop-color="#312E81"/>
    </linearGradient>
  </defs>
  <rect width="1600" height="900" fill="url(#bg2)"/>
  <rect x="180" y="140" width="1240" height="620" rx="28" fill="#0F172A" stroke="#A78BFA" stroke-opacity="0.5" stroke-width="2"/>
  <path d="M280 650C420 420 580 420 720 650" stroke="#22D3EE" stroke-width="8" stroke-linecap="round"/>
  <path d="M520 650C700 300 900 300 1080 650" stroke="#A78BFA" stroke-width="8" stroke-linecap="round"/>
  <path d="M760 650C900 460 1040 460 1180 650" stroke="#F472B6" stroke-width="8" stroke-linecap="round"/>
  <rect x="260" y="220" width="220" height="78" rx="12" fill="#1D4ED8" fill-opacity="0.3" stroke="#60A5FA"/>
  <rect x="540" y="220" width="220" height="78" rx="12" fill="#7C3AED" fill-opacity="0.3" stroke="#C4B5FD"/>
  <rect x="820" y="220" width="220" height="78" rx="12" fill="#DB2777" fill-opacity="0.25" stroke="#F9A8D4"/>
  <rect x="1100" y="220" width="220" height="78" rx="12" fill="#059669" fill-opacity="0.28" stroke="#6EE7B7"/>
  <text x="303" y="268" fill="#BFDBFE" font-size="24" font-family="Arial">Capture</text>
  <text x="596" y="268" fill="#DDD6FE" font-size="24" font-family="Arial">Review</text>
  <text x="880" y="268" fill="#FBCFE8" font-size="24" font-family="Arial">Decide</text>
  <text x="1168" y="268" fill="#A7F3D0" font-size="24" font-family="Arial">Apply</text>
</svg>