<svg width="1600" height="900" viewBox="0 0 1600 900" xmlns="http://www.w3.org/2000/svg">
  <defs>
    <linearGradient id="bg2" x1="0" y1="0" x2="1" y2="1">
      <stop offset="0%" stop-color="#0b1220"/>
      <stop offset="100%" stop-color="#1e1b4b"/>
    </linearGradient>
  </defs>
  <rect width="1600" height="900" fill="url(#bg2)"/>
  <rect x="200" y="180" width="1200" height="540" rx="32" fill="#0f172a" stroke="#6366f1" stroke-width="3"/>
  <line x1="800" y1="180" x2="800" y2="720" stroke="#4f46e5" stroke-width="3" stroke-dasharray="14 10"/>
  <text x="500" y="250" fill="#67e8f9" font-size="44" text-anchor="middle" font-family="Pretendard, Arial">자동 보조</text>
  <text x="1100" y="250" fill="#c4b5fd" font-size="44" text-anchor="middle" font-family="Pretendard, Arial">인간 판단</text>
  <rect x="270" y="310" width="460" height="90" rx="14" fill="#083344"/>
  <rect x="270" y="430" width="460" height="90" rx="14" fill="#0f766e"/>
  <rect x="270" y="550" width="460" height="90" rx="14" fill="#155e75"/>
  <text x="500" y="367" fill="#cffafe" font-size="30" text-anchor="middle" font-family="Pretendard, Arial">초안 생성</text>
  <text x="500" y="487" fill="#cffafe" font-size="30" text-anchor="middle" font-family="Pretendard, Arial">우선순위 추천</text>
  <text x="500" y="607" fill="#cffafe" font-size="30" text-anchor="middle" font-family="Pretendard, Arial">톤 자동 제안</text>
  <rect x="870" y="310" width="460" height="90" rx="14" fill="#312e81"/>
  <rect x="870" y="430" width="460" height="90" rx="14" fill="#4338ca"/>
  <rect x="870" y="550" width="460" height="90" rx="14" fill="#3730a3"/>
  <text x="1100" y="367" fill="#ede9fe" font-size="30" text-anchor="middle" font-family="Pretendard, Arial">근거 재확인</text>
  <text x="1100" y="487" fill="#ede9fe" font-size="30" text-anchor="middle" font-family="Pretendard, Arial">보류 후 재검토</text>
  <text x="1100" y="607" fill="#ede9fe" font-size="30" text-anchor="middle" font-family="Pretendard, Arial">반대안 비교</text>
</svg>
