<svg width="1600" height="900" viewBox="0 0 1600 900" fill="none" xmlns="http://www.w3.org/2000/svg">
  <rect width="1600" height="900" fill="#060814"/>
  <defs>
    <linearGradient id="bg3" x1="160" y1="100" x2="1460" y2="780" gradientUnits="userSpaceOnUse">
      <stop stop-color="#100B23"/>
      <stop offset="0.5" stop-color="#1E123F"/>
      <stop offset="1" stop-color="#0A2434"/>
    </linearGradient>
    <radialGradient id="g31" cx="0" cy="0" r="1" gradientUnits="userSpaceOnUse" gradientTransform="translate(470 270) rotate(12) scale(340 240)">
      <stop stop-color="#FB7185" stop-opacity="0.34"/>
      <stop offset="1" stop-color="#FB7185" stop-opacity="0"/>
    </radialGradient>
    <radialGradient id="g32" cx="0" cy="0" r="1" gradientUnits="userSpaceOnUse" gradientTransform="translate(1160 600) rotate(-15) scale(420 250)">
      <stop stop-color="#22D3EE" stop-opacity="0.28"/>
      <stop offset="1" stop-color="#22D3EE" stop-opacity="0"/>
    </radialGradient>
  </defs>
  <rect x="40" y="40" width="1520" height="820" rx="40" fill="url(#bg3)"/>
  <ellipse cx="470" cy="270" rx="340" ry="240" fill="url(#g31)"/>
  <ellipse cx="1160" cy="600" rx="420" ry="250" fill="url(#g32)"/>
  <g stroke="#A78BFA" stroke-opacity="0.3">
    <circle cx="340" cy="320" r="120"/>
    <circle cx="340" cy="320" r="190"/>
    <circle cx="340" cy="320" r="260"/>
  </g>
  <g stroke="#67E8F9" stroke-opacity="0.26">
    <rect x="740" y="170" width="560" height="520" rx="34"/>
    <rect x="820" y="240" width="400" height="380" rx="26"/>
  </g>
  <g opacity="0.9">
    <circle cx="340" cy="320" r="14" fill="#F9A8D4"/>
    <circle cx="340" cy="130" r="10" fill="#C084FC"/>
    <circle cx="520" cy="320" r="10" fill="#67E8F9"/>
    <circle cx="340" cy="510" r="10" fill="#FDBA74"/>
    <circle cx="160" cy="320" r="10" fill="#93C5FD"/>
  </g>
  <g opacity="0.88">
    <rect x="860" y="270" width="300" height="30" rx="15" fill="#E9D5FF" fill-opacity="0.78"/>
    <rect x="860" y="330" width="240" height="16" rx="8" fill="#7DD3FC" fill-opacity="0.62"/>
    <rect x="860" y="375" width="280" height="16" rx="8" fill="#F9A8D4" fill-opacity="0.62"/>
    <rect x="860" y="420" width="210" height="16" rx="8" fill="#A78BFA" fill-opacity="0.62"/>
    <rect x="860" y="465" width="250" height="16" rx="8" fill="#FDBA74" fill-opacity="0.62"/>
    <rect x="860" y="510" width="180" height="16" rx="8" fill="#67E8F9" fill-opacity="0.62"/>
  </g>
  <path d="M540 320H740" stroke="#67E8F9" stroke-width="3" stroke-opacity="0.48"/>
  <circle cx="740" cy="320" r="8" fill="#67E8F9"/>
  <path d="M160 740C340 670 490 770 670 720C850 670 970 630 1140 660C1270 683 1360 720 1450 700" stroke="#F472B6" stroke-width="4" stroke-opacity="0.36"/>
</svg>