<svg width="1600" height="900" viewBox="0 0 1600 900" fill="none" xmlns="http://www.w3.org/2000/svg">
  <defs>
    <linearGradient id="bg" x1="0" y1="0" x2="1600" y2="900" gradientUnits="userSpaceOnUse">
      <stop stop-color="#0B1020"/>
      <stop offset="1" stop-color="#1F2A44"/>
    </linearGradient>
    <linearGradient id="card" x1="260" y1="180" x2="1340" y2="720" gradientUnits="userSpaceOnUse">
      <stop stop-color="#1E293B"/>
      <stop offset="1" stop-color="#0F172A"/>
    </linearGradient>
  </defs>
  <rect width="1600" height="900" fill="url(#bg)"/>
  <rect x="220" y="140" width="1160" height="620" rx="28" fill="url(#card)" stroke="#38BDF8" stroke-opacity="0.4" stroke-width="2"/>
  <rect x="280" y="220" width="320" height="64" rx="12" fill="#0EA5E9" fill-opacity="0.18" stroke="#38BDF8"/>
  <text x="320" y="261" fill="#BAE6FD" font-size="28" font-family="Arial">Consent Log</text>
  <rect x="280" y="320" width="1040" height="48" rx="10" fill="#0B1220" stroke="#334155"/>
  <rect x="280" y="390" width="1040" height="48" rx="10" fill="#0B1220" stroke="#334155"/>
  <rect x="280" y="460" width="1040" height="48" rx="10" fill="#0B1220" stroke="#334155"/>
  <rect x="280" y="530" width="1040" height="48" rx="10" fill="#0B1220" stroke="#334155"/>
  <rect x="280" y="600" width="1040" height="48" rx="10" fill="#0B1220" stroke="#334155"/>
  <circle cx="1270" cy="252" r="14" fill="#22C55E"/>
  <circle cx="1270" cy="344" r="10" fill="#F59E0B"/>
  <circle cx="1270" cy="414" r="10" fill="#F59E0B"/>
  <circle cx="1270" cy="484" r="10" fill="#EF4444"/>
  <circle cx="1270" cy="554" r="10" fill="#22C55E"/>
</svg>