<svg width="1600" height="900" viewBox="0 0 1600 900" xmlns="http://www.w3.org/2000/svg">
  <defs>
    <linearGradient id="bg2" x1="0" y1="0" x2="1" y2="1">
      <stop offset="0%" stop-color="#111827"/>
      <stop offset="100%" stop-color="#1e1b4b"/>
    </linearGradient>
  </defs>
  <rect width="1600" height="900" fill="url(#bg2)"/>
  <g fill="none" stroke="#818cf8" stroke-width="4">
    <rect x="210" y="230" width="320" height="180" rx="22"/>
    <rect x="640" y="230" width="320" height="180" rx="22"/>
    <rect x="1070" y="230" width="320" height="180" rx="22"/>
    <rect x="425" y="520" width="320" height="180" rx="22"/>
    <rect x="855" y="520" width="320" height="180" rx="22"/>
  </g>
  <g stroke="#a5b4fc" stroke-width="5" fill="none" marker-end="url(#arrow)">
    <defs>
      <marker id="arrow" markerWidth="10" markerHeight="10" refX="8" refY="3" orient="auto">
        <path d="M0,0 L0,6 L9,3 z" fill="#a5b4fc"/>
      </marker>
    </defs>
    <path d="M530 320H640"/>
    <path d="M960 320H1070"/>
    <path d="M800 410V520"/>
    <path d="M1175 410V520"/>
  </g>
  <g fill="#e5e7eb" font-family="Pretendard, Arial, sans-serif" text-anchor="middle">
    <text x="800" y="110" font-size="54" font-weight="700">Consent Log Decision Map</text>
    <text x="370" y="325" font-size="36">Input</text>
    <text x="800" y="325" font-size="36">Review</text>
    <text x="1230" y="325" font-size="36">Approve</text>
    <text x="585" y="615" font-size="36">Revise</text>
    <text x="1015" y="615" font-size="36">Hold</text>
  </g>
</svg>