<svg width="1600" height="900" viewBox="0 0 1600 900" fill="none" xmlns="http://www.w3.org/2000/svg">
  <rect width="1600" height="900" fill="#060816"/>
  <defs>
    <linearGradient id="bg1" x1="140" y1="120" x2="1480" y2="760" gradientUnits="userSpaceOnUse">
      <stop stop-color="#190B2D"/>
      <stop offset="0.55" stop-color="#1F1144"/>
      <stop offset="1" stop-color="#0D1638"/>
    </linearGradient>
    <radialGradient id="glow1" cx="0" cy="0" r="1" gradientUnits="userSpaceOnUse" gradientTransform="translate(450 280) rotate(15) scale(360 250)">
      <stop stop-color="#FB7185" stop-opacity="0.42"/>
      <stop offset="1" stop-color="#FB7185" stop-opacity="0"/>
    </radialGradient>
    <radialGradient id="glow2" cx="0" cy="0" r="1" gradientUnits="userSpaceOnUse" gradientTransform="translate(1180 620) rotate(-12) scale(400 260)">
      <stop stop-color="#22D3EE" stop-opacity="0.34"/>
      <stop offset="1" stop-color="#22D3EE" stop-opacity="0"/>
    </radialGradient>
  </defs>
  <rect x="40" y="40" width="1520" height="820" rx="36" fill="url(#bg1)"/>
  <ellipse cx="450" cy="280" rx="360" ry="250" fill="url(#glow1)"/>
  <ellipse cx="1180" cy="620" rx="400" ry="260" fill="url(#glow2)"/>
  <g stroke="#F472B6" stroke-opacity="0.3">
    <rect x="180" y="170" width="300" height="520" rx="28"/>
    <rect x="530" y="220" width="280" height="420" rx="28"/>
    <rect x="860" y="150" width="560" height="560" rx="32"/>
  </g>
  <g opacity="0.85">
    <rect x="220" y="215" width="220" height="26" rx="13" fill="#F9A8D4" fill-opacity="0.72"/>
    <rect x="220" y="275" width="160" height="18" rx="9" fill="#FDBA74" fill-opacity="0.56"/>
    <rect x="220" y="325" width="190" height="18" rx="9" fill="#C084FC" fill-opacity="0.52"/>
    <rect x="220" y="375" width="140" height="18" rx="9" fill="#67E8F9" fill-opacity="0.52"/>
    <rect x="570" y="270" width="190" height="20" rx="10" fill="#F0ABFC" fill-opacity="0.62"/>
    <rect x="570" y="320" width="150" height="20" rx="10" fill="#93C5FD" fill-opacity="0.56"/>
    <rect x="570" y="370" width="170" height="20" rx="10" fill="#FCA5A5" fill-opacity="0.56"/>
  </g>
  <g stroke="#67E8F9" stroke-width="3" stroke-opacity="0.52">
    <path d="M480 430C520 430 545 430 570 430"/>
    <path d="M810 430C845 430 870 430 900 430"/>
  </g>
  <circle cx="480" cy="430" r="7" fill="#F9A8D4"/>
  <circle cx="810" cy="430" r="7" fill="#C084FC"/>
  <circle cx="900" cy="430" r="7" fill="#67E8F9"/>
  <g stroke="#A78BFA" stroke-opacity="0.35">
    <path d="M940 240H1310"/>
    <path d="M940 300H1360"/>
    <path d="M940 360H1290"/>
    <path d="M940 420H1340"/>
    <path d="M940 480H1260"/>
    <path d="M940 540H1320"/>
  </g>
  <path d="M170 760C330 690 470 790 660 730C820 680 940 610 1120 645C1270 674 1360 725 1450 700" stroke="#F472B6" stroke-width="4" stroke-opacity="0.4"/>
</svg>