<svg width="1600" height="900" viewBox="0 0 1600 900" fill="none" xmlns="http://www.w3.org/2000/svg">
  <defs>
    <linearGradient id="bg" x1="0" y1="0" x2="1600" y2="900" gradientUnits="userSpaceOnUse">
      <stop stop-color="#0B1020"/>
      <stop offset="1" stop-color="#111827"/>
    </linearGradient>
    <linearGradient id="cardA" x1="220" y1="620" x2="520" y2="340" gradientUnits="userSpaceOnUse">
      <stop stop-color="#34D399"/>
      <stop offset="1" stop-color="#059669"/>
    </linearGradient>
    <linearGradient id="cardB" x1="580" y1="560" x2="900" y2="280" gradientUnits="userSpaceOnUse">
      <stop stop-color="#22D3EE"/>
      <stop offset="1" stop-color="#0891B2"/>
    </linearGradient>
    <linearGradient id="cardC" x1="980" y1="500" x2="1340" y2="220" gradientUnits="userSpaceOnUse">
      <stop stop-color="#A78BFA"/>
      <stop offset="1" stop-color="#7C3AED"/>
    </linearGradient>
  </defs>
  <rect width="1600" height="900" fill="url(#bg)"/>
  <rect x="180" y="470" width="330" height="220" rx="24" fill="url(#cardA)" opacity="0.95"/>
  <rect x="560" y="390" width="360" height="240" rx="24" fill="url(#cardB)" opacity="0.95"/>
  <rect x="980" y="300" width="380" height="260" rx="24" fill="url(#cardC)" opacity="0.95"/>
  <path d="M520 580C560 560 560 520 560 510" stroke="#86EFAC" stroke-width="10" stroke-linecap="round"/>
  <path d="M930 500C970 490 970 450 980 430" stroke="#67E8F9" stroke-width="10" stroke-linecap="round"/>
  <circle cx="420" cy="290" r="120" fill="#10B981" opacity="0.15"/>
  <circle cx="790" cy="220" r="140" fill="#06B6D4" opacity="0.16"/>
  <circle cx="1230" cy="170" r="150" fill="#8B5CF6" opacity="0.16"/>
</svg>