<svg xmlns="http://www.w3.org/2000/svg" width="1600" height="900" viewBox="0 0 1600 900" role="img" aria-label="카드형 상품 세트가 입문 핵심 확장 흐름으로 이어지는 구성">
  <defs>
    <linearGradient id="bg2" x1="0" y1="0" x2="0" y2="1">
      <stop offset="0%" stop-color="#0f172a"/>
      <stop offset="100%" stop-color="#111827"/>
    </linearGradient>
  </defs>
  <rect width="1600" height="900" fill="url(#bg2)"/>
  <g stroke="#334155" opacity="0.3">
    <path d="M0 120h1600M0 240h1600M0 360h1600M0 480h1600M0 600h1600M0 720h1600"/>
    <path d="M160 0v900M320 0v900M480 0v900M640 0v900M800 0v900M960 0v900M1120 0v900M1280 0v900M1440 0v900"/>
  </g>
  <g>
    <rect x="170" y="250" width="340" height="220" rx="26" fill="#111827" stroke="#10b981" stroke-width="4"/>
    <rect x="630" y="250" width="340" height="220" rx="26" fill="#111827" stroke="#38bdf8" stroke-width="4"/>
    <rect x="1090" y="250" width="340" height="220" rx="26" fill="#111827" stroke="#a78bfa" stroke-width="4"/>
  </g>
  <g fill="#f8fafc" font-family="Arial, sans-serif" text-anchor="middle">
    <text x="340" y="335" font-size="38">입문</text>
    <text x="340" y="390" font-size="26">바로 써보는 작은 승리</text>
    <text x="800" y="335" font-size="38">핵심</text>
    <text x="800" y="390" font-size="26">가장 큰 문제 해결</text>
    <text x="1260" y="335" font-size="38">확장</text>
    <text x="1260" y="390" font-size="26">응용과 시간 절약</text>
  </g>
  <g fill="none" stroke="#94a3b8" stroke-width="10" marker-end="url(#arrow2)">
    <defs>
      <marker id="arrow2" markerWidth="12" markerHeight="12" refX="10" refY="4" orient="auto">
        <path d="M0,0 L0,8 L10,4 z" fill="#94a3b8"/>
      </marker>
    </defs>
    <path d="M510 360 C570 360, 570 360, 630 360"/>
    <path d="M970 360 C1030 360, 1030 360, 1090 360"/>
  </g>
  <rect x="260" y="590" width="1080" height="110" rx="18" fill="#0b1220" stroke="#475569"/>
  <text x="800" y="656" fill="#e2e8f0" font-size="32" text-anchor="middle" font-family="Arial, sans-serif">첫 구매 뒤의 다음 질문을 미리 연결할수록 재구매는 쉬워진다</text>
</svg>