<svg width="1600" height="900" viewBox="0 0 1600 900" fill="none" xmlns="http://www.w3.org/2000/svg">
  <defs>
    <linearGradient id="bg" x1="0" y1="0" x2="1600" y2="900" gradientUnits="userSpaceOnUse">
      <stop stop-color="#0B1020"/>
      <stop offset="1" stop-color="#132A44"/>
    </linearGradient>
    <linearGradient id="card" x1="0" y1="0" x2="1" y2="1">
      <stop stop-color="#34D399"/>
      <stop offset="1" stop-color="#22D3EE"/>
    </linearGradient>
  </defs>
  <rect width="1600" height="900" fill="url(#bg)"/>
  <rect x="140" y="130" width="1320" height="640" rx="26" fill="#0F1B30" stroke="#2DD4BF" stroke-opacity="0.45"/>
  <rect x="220" y="210" width="300" height="130" rx="16" fill="url(#card)" fill-opacity="0.25" stroke="#6EE7B7"/>
  <rect x="550" y="210" width="300" height="130" rx="16" fill="url(#card)" fill-opacity="0.2" stroke="#67E8F9"/>
  <rect x="880" y="210" width="300" height="130" rx="16" fill="url(#card)" fill-opacity="0.2" stroke="#34D399"/>
  <rect x="1210" y="210" width="170" height="130" rx="16" fill="url(#card)" fill-opacity="0.2" stroke="#22D3EE"/>
  <path d="M230 610C330 560 410 570 500 520C590 470 690 510 790 450C890 390 980 430 1080 360C1160 305 1260 320 1370 260" stroke="#5EEAD4" stroke-width="10" stroke-linecap="round"/>
  <circle cx="500" cy="520" r="14" fill="#A7F3D0"/>
  <circle cx="790" cy="450" r="14" fill="#99F6E4"/>
  <circle cx="1080" cy="360" r="14" fill="#67E8F9"/>
  <text x="220" y="430" fill="#D1FAE5" font-size="46" font-family="Pretendard, Arial, sans-serif" font-weight="700">Passive Income Offer Stack</text>
  <text x="220" y="490" fill="#99F6E4" font-size="32" font-family="Pretendard, Arial, sans-serif">Value Ladder · Renewal Trigger · Retention Loop</text>
</svg>