<svg width="1600" height="900" viewBox="0 0 1600 900" fill="none" xmlns="http://www.w3.org/2000/svg">
  <defs>
    <linearGradient id="bg" x1="0" y1="0" x2="1600" y2="900" gradientUnits="userSpaceOnUse">
      <stop stop-color="#0C1222"/>
      <stop offset="1" stop-color="#1A2440"/>
    </linearGradient>
    <linearGradient id="panel" x1="0" y1="0" x2="1" y2="1">
      <stop stop-color="#1D3154"/>
      <stop offset="1" stop-color="#2A4773"/>
    </linearGradient>
  </defs>

  <rect width="1600" height="900" fill="url(#bg)"/>

  <rect x="140" y="120" width="920" height="660" rx="28" fill="url(#panel)"/>
  <rect x="1120" y="120" width="340" height="660" rx="28" fill="#162743"/>

  <text x="210" y="200" fill="#E7F5FF" font-family="Pretendard, Arial, sans-serif" font-size="46" font-weight="700">품질 게이트 체크보드</text>

  <rect x="210" y="250" width="780" height="84" rx="14" fill="#223C63"/>
  <rect x="210" y="355" width="780" height="84" rx="14" fill="#223C63"/>
  <rect x="210" y="460" width="780" height="84" rx="14" fill="#223C63"/>
  <rect x="210" y="565" width="780" height="84" rx="14" fill="#223C63"/>

  <circle cx="250" cy="292" r="15" fill="#8CE99A"/>
  <circle cx="250" cy="397" r="15" fill="#8CE99A"/>
  <circle cx="250" cy="502" r="15" fill="#8CE99A"/>
  <circle cx="250" cy="607" r="15" fill="#8CE99A"/>

  <text x="285" y="302" fill="#D6E9FF" font-family="Pretendard, Arial, sans-serif" font-size="30">핵심 시나리오 완주</text>
  <text x="285" y="407" fill="#D6E9FF" font-family="Pretendard, Arial, sans-serif" font-size="30">오류 복구 경로 노출</text>
  <text x="285" y="512" fill="#D6E9FF" font-family="Pretendard, Arial, sans-serif" font-size="30">목적 행동 시각 분리</text>
  <text x="285" y="617" fill="#D6E9FF" font-family="Pretendard, Arial, sans-serif" font-size="30">다음 반복 변경점 문서화</text>

  <text x="1175" y="210" fill="#E7F5FF" font-family="Pretendard, Arial, sans-serif" font-size="34" font-weight="700">주간 지표</text>
  <rect x="1160" y="250" width="260" height="170" rx="18" fill="#223B62"/>
  <text x="1210" y="325" fill="#8CE99A" font-family="Pretendard, Arial, sans-serif" font-size="54" font-weight="700">4.2s</text>
  <text x="1185" y="365" fill="#C8E6FF" font-family="Pretendard, Arial, sans-serif" font-size="24">첫 행동 도달 시간</text>

  <rect x="1160" y="460" width="260" height="250" rx="18" fill="#223B62"/>
  <path d="M1190 640L1230 590L1270 610L1310 540L1350 560" stroke="#74C0FC" stroke-width="8" stroke-linecap="round" stroke-linejoin="round"/>
  <circle cx="1190" cy="640" r="7" fill="#8CE99A"/>
  <circle cx="1230" cy="590" r="7" fill="#8CE99A"/>
  <circle cx="1270" cy="610" r="7" fill="#8CE99A"/>
  <circle cx="1310" cy="540" r="7" fill="#8CE99A"/>
  <circle cx="1350" cy="560" r="7" fill="#8CE99A"/>
  <text x="1180" y="700" fill="#C8E6FF" font-family="Pretendard, Arial, sans-serif" font-size="22">주차별 개선 추이</text>
</svg>