<svg width="1600" height="900" viewBox="0 0 1600 900" fill="none" xmlns="http://www.w3.org/2000/svg">
  <defs>
    <linearGradient id="bg" x1="0" y1="0" x2="0" y2="900" gradientUnits="userSpaceOnUse">
      <stop stop-color="#111827"/>
      <stop offset="1" stop-color="#0F172A"/>
    </linearGradient>
    <linearGradient id="lane" x1="0" y1="0" x2="1" y2="1">
      <stop stop-color="#1E3A5F"/>
      <stop offset="1" stop-color="#274A77"/>
    </linearGradient>
  </defs>

  <rect width="1600" height="900" fill="url(#bg)"/>

  <rect x="130" y="260" width="1340" height="360" rx="36" fill="#0B1220" stroke="#334E75" stroke-width="4"/>
  <line x1="577" y1="260" x2="577" y2="620" stroke="#2E4F77" stroke-width="4"/>
  <line x1="1024" y1="260" x2="1024" y2="620" stroke="#2E4F77" stroke-width="4"/>

  <rect x="170" y="310" width="360" height="260" rx="24" fill="url(#lane)"/>
  <rect x="620" y="310" width="360" height="260" rx="24" fill="url(#lane)"/>
  <rect x="1070" y="310" width="360" height="260" rx="24" fill="url(#lane)"/>

  <text x="230" y="365" fill="#D6E9FF" font-family="Pretendard, Arial, sans-serif" font-size="40" font-weight="700">30분 점검</text>
  <text x="225" y="430" fill="#B7D8FF" font-family="Pretendard, Arial, sans-serif" font-size="30">구조/우선순위</text>
  <text x="225" y="475" fill="#B7D8FF" font-family="Pretendard, Arial, sans-serif" font-size="30">핵심 흐름 확인</text>

  <text x="680" y="365" fill="#D6E9FF" font-family="Pretendard, Arial, sans-serif" font-size="40" font-weight="700">60분 점검</text>
  <text x="675" y="430" fill="#B7D8FF" font-family="Pretendard, Arial, sans-serif" font-size="30">상호작용 안정성</text>
  <text x="675" y="475" fill="#B7D8FF" font-family="Pretendard, Arial, sans-serif" font-size="30">예외 케이스 검증</text>

  <text x="1125" y="365" fill="#D6E9FF" font-family="Pretendard, Arial, sans-serif" font-size="40" font-weight="700">90분 점검</text>
  <text x="1125" y="430" fill="#B7D8FF" font-family="Pretendard, Arial, sans-serif" font-size="30">배포 가능성 확인</text>
  <text x="1125" y="475" fill="#B7D8FF" font-family="Pretendard, Arial, sans-serif" font-size="30">로그/복구 경로 점검</text>

  <path d="M360 660L800 780L1240 660" stroke="#74C0FC" stroke-width="8" stroke-linecap="round"/>
  <circle cx="360" cy="660" r="14" fill="#8CE99A"/>
  <circle cx="800" cy="780" r="14" fill="#8CE99A"/>
  <circle cx="1240" cy="660" r="14" fill="#8CE99A"/>

  <text x="560" y="150" fill="#E7F5FF" font-family="Pretendard, Arial, sans-serif" font-size="52" font-weight="700">90분 바이브 코딩 검증 루프</text>
</svg>