<svg width="1600" height="900" viewBox="0 0 1600 900" fill="none" xmlns="http://www.w3.org/2000/svg">
  <defs>
    <linearGradient id="bg" x1="0" y1="0" x2="1600" y2="900" gradientUnits="userSpaceOnUse">
      <stop stop-color="#0B1220"/>
      <stop offset="1" stop-color="#15223A"/>
    </linearGradient>
    <linearGradient id="card" x1="0" y1="0" x2="1" y2="1">
      <stop stop-color="#1D2F4D"/>
      <stop offset="1" stop-color="#223B61"/>
    </linearGradient>
    <filter id="shadow" x="-20%" y="-20%" width="140%" height="140%">
      <feDropShadow dx="0" dy="10" stdDeviation="12" flood-color="#02060F" flood-opacity="0.5"/>
    </filter>
  </defs>

  <rect width="1600" height="900" fill="url(#bg)"/>

  <rect x="140" y="170" width="380" height="180" rx="22" fill="url(#card)" filter="url(#shadow)"/>
  <rect x="610" y="170" width="380" height="180" rx="22" fill="url(#card)" filter="url(#shadow)"/>
  <rect x="1080" y="170" width="380" height="180" rx="22" fill="url(#card)" filter="url(#shadow)"/>

  <rect x="140" y="550" width="380" height="180" rx="22" fill="url(#card)" filter="url(#shadow)"/>
  <rect x="610" y="550" width="380" height="180" rx="22" fill="url(#card)" filter="url(#shadow)"/>
  <rect x="1080" y="550" width="380" height="180" rx="22" fill="url(#card)" filter="url(#shadow)"/>

  <path d="M520 260H610" stroke="#74C0FC" stroke-width="6" stroke-linecap="round"/>
  <path d="M990 260H1080" stroke="#74C0FC" stroke-width="6" stroke-linecap="round"/>
  <path d="M1270 350V550" stroke="#74C0FC" stroke-width="6" stroke-linecap="round"/>
  <path d="M1080 640H990" stroke="#74C0FC" stroke-width="6" stroke-linecap="round"/>
  <path d="M610 640H520" stroke="#74C0FC" stroke-width="6" stroke-linecap="round"/>
  <path d="M330 550V350" stroke="#74C0FC" stroke-width="6" stroke-linecap="round"/>

  <circle cx="800" cy="450" r="96" fill="#1A2A45" stroke="#8CE99A" stroke-width="8"/>
  <circle cx="800" cy="450" r="54" fill="#2B4A72"/>

  <text x="190" y="240" fill="#CFE8FF" font-family="Pretendard, Arial, sans-serif" font-size="36" font-weight="700">아이디어 스냅샷</text>
  <text x="660" y="240" fill="#CFE8FF" font-family="Pretendard, Arial, sans-serif" font-size="36" font-weight="700">빠른 프로토타입</text>
  <text x="1125" y="240" fill="#CFE8FF" font-family="Pretendard, Arial, sans-serif" font-size="36" font-weight="700">초기 검증</text>

  <text x="190" y="620" fill="#CFE8FF" font-family="Pretendard, Arial, sans-serif" font-size="36" font-weight="700">피드백 정리</text>
  <text x="650" y="620" fill="#CFE8FF" font-family="Pretendard, Arial, sans-serif" font-size="36" font-weight="700">품질 게이트</text>
  <text x="1125" y="620" fill="#CFE8FF" font-family="Pretendard, Arial, sans-serif" font-size="36" font-weight="700">다음 반복 계획</text>

  <text x="742" y="440" fill="#D3F9D8" font-family="Pretendard, Arial, sans-serif" font-size="30" font-weight="700">LOOP</text>
  <text x="705" y="480" fill="#D3F9D8" font-family="Pretendard, Arial, sans-serif" font-size="26">지속 개선</text>
</svg>