<svg width="1600" height="900" viewBox="0 0 1600 900" xmlns="http://www.w3.org/2000/svg">
  <defs>
    <linearGradient id="bg3" x1="0" y1="0" x2="1" y2="1">
      <stop offset="0%" stop-color="#0b1120"/>
      <stop offset="100%" stop-color="#1f2937"/>
    </linearGradient>
  </defs>
  <rect width="1600" height="900" fill="url(#bg3)"/>
  <g transform="translate(120,120)">
    <rect width="1360" height="660" rx="28" fill="#111827" stroke="#374151"/>
    <rect x="50" y="60" width="360" height="540" rx="18" fill="#0f172a" stroke="#334155"/>
    <rect x="460" y="60" width="360" height="540" rx="18" fill="#0f172a" stroke="#334155"/>
    <rect x="870" y="60" width="440" height="540" rx="18" fill="#0f172a" stroke="#334155"/>
    <rect x="90" y="110" width="280" height="46" rx="10" fill="#38bdf8" opacity="0.85"/>
    <rect x="90" y="190" width="240" height="20" rx="8" fill="#334155"/>
    <rect x="90" y="226" width="260" height="20" rx="8" fill="#334155"/>
    <rect x="90" y="262" width="210" height="20" rx="8" fill="#334155"/>
    <rect x="500" y="110" width="280" height="46" rx="10" fill="#22c55e" opacity="0.85"/>
    <rect x="500" y="190" width="230" height="20" rx="8" fill="#334155"/>
    <rect x="500" y="226" width="270" height="20" rx="8" fill="#334155"/>
    <rect x="500" y="262" width="250" height="20" rx="8" fill="#334155"/>
    <rect x="910" y="110" width="360" height="180" rx="14" fill="#111827" stroke="#475569"/>
    <path d="M930 250 C1000 180,1080 250,1160 200 S1270 190,1320 150" stroke="#f59e0b" stroke-width="6" fill="none"/>
    <circle cx="980" cy="210" r="8" fill="#f59e0b"/>
    <circle cx="1160" cy="200" r="8" fill="#f59e0b"/>
    <circle cx="1320" cy="150" r="8" fill="#f59e0b"/>
    <rect x="910" y="320" width="360" height="230" rx="14" fill="#111827" stroke="#475569"/>
    <rect x="940" y="350" width="300" height="34" rx="8" fill="#6366f1" opacity="0.8"/>
    <rect x="940" y="402" width="240" height="18" rx="7" fill="#334155"/>
    <rect x="940" y="434" width="280" height="18" rx="7" fill="#334155"/>
    <rect x="940" y="466" width="210" height="18" rx="7" fill="#334155"/>
    <rect x="940" y="500" width="180" height="18" rx="7" fill="#334155"/>
    <path d="M410 330 L460 330" stroke="#60a5fa" stroke-width="4"/>
    <path d="M820 430 L870 430" stroke="#34d399" stroke-width="4"/>
  </g>
</svg>
