<svg xmlns="http://www.w3.org/2000/svg" width="1600" height="900" viewBox="0 0 1600 900" role="img" aria-label="주간 개선 루프 다이어그램">
  <defs>
    <linearGradient id="bg3" x1="0" y1="0" x2="1" y2="1">
      <stop offset="0%" stop-color="#0f172a"/>
      <stop offset="100%" stop-color="#1f2937"/>
    </linearGradient>
  </defs>
  <rect width="1600" height="900" fill="url(#bg3)"/>
  <circle cx="800" cy="450" r="280" fill="#0b253a" stroke="#38bdf8" stroke-opacity="0.5" stroke-width="3"/>
  <circle cx="800" cy="450" r="170" fill="#082f49" stroke="#67e8f9" stroke-opacity="0.55" stroke-width="2"/>
  <rect x="180" y="180" width="300" height="130" rx="20" fill="#1e3a8a" fill-opacity="0.35" stroke="#93c5fd"/>
  <rect x="1120" y="180" width="300" height="130" rx="20" fill="#0f766e" fill-opacity="0.35" stroke="#5eead4"/>
  <rect x="180" y="590" width="300" height="130" rx="20" fill="#334155" fill-opacity="0.45" stroke="#cbd5e1"/>
  <rect x="1120" y="590" width="300" height="130" rx="20" fill="#164e63" fill-opacity="0.42" stroke="#67e8f9"/>
  <path d="M480 245 C620 210, 700 230, 760 310" stroke="#bae6fd" stroke-width="4" fill="none"/>
  <path d="M1120 245 C980 210, 900 230, 840 310" stroke="#99f6e4" stroke-width="4" fill="none"/>
  <path d="M480 655 C620 690, 700 670, 760 590" stroke="#e2e8f0" stroke-width="4" fill="none"/>
  <path d="M1120 655 C980 690, 900 670, 840 590" stroke="#67e8f9" stroke-width="4" fill="none"/>
  <text x="610" y="110" fill="#e2e8f0" font-size="42" font-family="Pretendard, Noto Sans KR, sans-serif">Weekly Optimization Loop</text>
  <text x="265" y="255" fill="#dbeafe" font-size="28" font-family="Pretendard, Noto Sans KR, sans-serif">성과 추출</text>
  <text x="1205" y="255" fill="#ccfbf1" font-size="28" font-family="Pretendard, Noto Sans KR, sans-serif">축 비교</text>
  <text x="265" y="665" fill="#e2e8f0" font-size="28" font-family="Pretendard, Noto Sans KR, sans-serif">한 축 수정</text>
  <text x="1205" y="665" fill="#bae6fd" font-size="28" font-family="Pretendard, Noto Sans KR, sans-serif">로그 반영</text>
</svg>