<svg xmlns="http://www.w3.org/2000/svg" width="1600" height="900" viewBox="0 0 1600 900" role="img" aria-label="Rollback pipeline map">
  <defs>
    <linearGradient id="bg3" x1="0" y1="0" x2="1" y2="1">
      <stop offset="0%" stop-color="#0f172a"/>
      <stop offset="100%" stop-color="#1e1b4b"/>
    </linearGradient>
  </defs>
  <rect width="1600" height="900" fill="url(#bg3)"/>
  <g fill="none" stroke="#94a3b8" stroke-width="2" opacity="0.35">
    <circle cx="250" cy="450" r="160"/><circle cx="560" cy="450" r="160"/><circle cx="870" cy="450" r="160"/><circle cx="1180" cy="450" r="160"/><circle cx="1490" cy="450" r="160"/>
  </g>
  <g fill="#0b1024" stroke="#38bdf8" stroke-width="4">
    <rect x="150" y="370" width="200" height="160" rx="20"/>
    <rect x="460" y="370" width="200" height="160" rx="20"/>
    <rect x="770" y="370" width="200" height="160" rx="20"/>
    <rect x="1080" y="370" width="200" height="160" rx="20"/>
    <rect x="1390" y="370" width="160" height="160" rx="20"/>
  </g>
  <g stroke="#22d3ee" stroke-width="8" fill="none" stroke-linecap="round">
    <path d="M350 450h110"/>
    <path d="M660 450h110"/>
    <path d="M970 450h110"/>
    <path d="M1280 450h110"/>
  </g>
  <g fill="#e2e8f0" font-family="Inter, Pretendard, sans-serif" font-size="28" font-weight="700">
    <text x="182" y="462">Detect</text>
    <text x="495" y="462">Freeze</text>
    <text x="804" y="462">Rollback</text>
    <text x="1108" y="462">Verify</text>
    <text x="1415" y="462">Close</text>
  </g>
</svg>