<svg xmlns="http://www.w3.org/2000/svg" width="1600" height="900" viewBox="0 0 1600 900" role="img" aria-label="Latency budget dashboard abstract">
  <defs>
    <linearGradient id="bg2" x1="0" y1="0" x2="0" y2="1">
      <stop offset="0%" stop-color="#111827"/>
      <stop offset="100%" stop-color="#1f2937"/>
    </linearGradient>
  </defs>
  <rect width="1600" height="900" fill="url(#bg2)"/>
  <rect x="110" y="110" width="1380" height="680" rx="28" fill="#0b1220" stroke="#334155"/>
  <g stroke="#22d3ee" stroke-width="4" fill="none">
    <polyline points="180,640 300,590 420,610 540,500 660,520 780,430 900,460 1020,350 1140,380 1260,300 1380,330"/>
    <polyline stroke="#818cf8" points="180,690 300,680 420,640 540,630 660,600 780,560 900,550 1020,520 1140,500 1260,470 1380,460"/>
  </g>
  <g fill="#e2e8f0" font-family="Inter, Pretendard, sans-serif" font-size="30" font-weight="600">
    <text x="180" y="190">P95 Latency Budget</text>
    <text x="180" y="250">Retry Heatmap</text>
    <text x="180" y="310">Cost Per Request</text>
  </g>
  <g>
    <rect x="1030" y="180" width="390" height="210" rx="18" fill="#111827" stroke="#22c55e"/>
    <rect x="1030" y="430" width="390" height="210" rx="18" fill="#111827" stroke="#f59e0b"/>
  </g>
  <g fill="#dcfce7" font-family="Inter, Pretendard, sans-serif" font-size="26" font-weight="700">
    <text x="1060" y="245">Stable Window: 92%</text>
    <text x="1060" y="290">Cache Hit: 68%</text>
    <text x="1060" y="335">Queue Drift: +4m</text>
  </g>
  <g fill="#fef3c7" font-family="Inter, Pretendard, sans-serif" font-size="26" font-weight="700">
    <text x="1060" y="495">Alert: Router Spillover</text>
    <text x="1060" y="540">Impact: Tier-B traffic</text>
    <text x="1060" y="585">Action: Prompt Trim</text>
  </g>
</svg>