<svg xmlns="http://www.w3.org/2000/svg" width="1600" height="900" viewBox="0 0 1600 900" role="img" aria-label="Context cache ledger architecture">
  <defs>
    <linearGradient id="bg" x1="0" y1="0" x2="1" y2="1">
      <stop offset="0%" stop-color="#06142a"/>
      <stop offset="100%" stop-color="#132a4f"/>
    </linearGradient>
    <linearGradient id="card" x1="0" y1="0" x2="1" y2="0">
      <stop offset="0%" stop-color="#22d3ee"/>
      <stop offset="100%" stop-color="#6366f1"/>
    </linearGradient>
  </defs>
  <rect width="1600" height="900" fill="url(#bg)"/>
  <g opacity="0.2" stroke="#7dd3fc" stroke-width="2" fill="none">
    <path d="M80 180h1440"/><path d="M80 360h1440"/><path d="M80 540h1440"/><path d="M80 720h1440"/>
    <path d="M280 80v740"/><path d="M560 80v740"/><path d="M840 80v740"/><path d="M1120 80v740"/><path d="M1400 80v740"/>
  </g>
  <g>
    <rect x="140" y="170" rx="24" ry="24" width="360" height="150" fill="#0b1f3d" stroke="#38bdf8"/>
    <rect x="620" y="170" rx="24" ry="24" width="360" height="150" fill="#0b1f3d" stroke="#22d3ee"/>
    <rect x="1100" y="170" rx="24" ry="24" width="360" height="150" fill="#0b1f3d" stroke="#818cf8"/>
    <rect x="380" y="470" rx="24" ry="24" width="360" height="150" fill="#0b1f3d" stroke="#67e8f9"/>
    <rect x="860" y="470" rx="24" ry="24" width="360" height="150" fill="#0b1f3d" stroke="#a78bfa"/>
  </g>
  <g stroke="url(#card)" stroke-width="6" fill="none" stroke-linecap="round">
    <path d="M500 245h120"/>
    <path d="M980 245h120"/>
    <path d="M800 320v130"/>
    <path d="M740 545h120"/>
  </g>
  <g fill="#e0f2fe" font-family="Inter, Pretendard, sans-serif" font-size="34" font-weight="700">
    <text x="178" y="255">Signal Ingest</text>
    <text x="668" y="255">Context Cache</text>
    <text x="1148" y="255">Policy Router</text>
    <text x="432" y="555">Ledger Writer</text>
    <text x="910" y="555">Rollback Index</text>
  </g>
</svg>